<svg width="40" height="40" viewBox="0 0 40 40" fill="none" xmlns="http://www.w3.org/2000/svg">
    <path
        d="M0 20C0 8.95431 8.95431 0 20 0C31.0457 0 40 8.95431 40 20C40 31.0457 31.0457 40 20 40C8.95431 40 0 31.0457 0 20Z"
        fill="black" />
    <path fill-rule="evenodd" clip-rule="evenodd"
        d="M19.5207 13.3217C20.0528 13.7945 20.1068 14.6157 19.6411 15.1561L17.0179 18.2H25.7196C26.4268 18.2 27 18.782 27 19.5C27 20.218 26.4268 20.8 25.7196 20.8H17.0179L19.6411 23.8439C20.1068 24.3843 20.0528 25.2055 19.5207 25.6783C18.9885 26.1511 18.1796 26.0964 17.7139 25.556L13.3802 20.5273C12.8733 19.9391 12.8733 19.0609 13.3802 18.4727L17.7139 13.444C18.1796 12.9036 18.9885 12.8489 19.5207 13.3217Z"
        fill="#76837B" />
</svg>