<svg width="40" height="40" viewBox="0 0 40 40" fill="none" xmlns="http://www.w3.org/2000/svg">
    <path
        d="M0 20C0 8.95431 8.95431 0 20 0C31.0457 0 40 8.95431 40 20C40 31.0457 31.0457 40 20 40C8.95431 40 0 31.0457 0 20Z"
        fill="#31402C" />
    <path fill-rule="evenodd" clip-rule="evenodd"
        d="M19.5 10.9C14.7503 10.9 10.9 14.7504 10.9 19.5C10.9 24.2497 14.7503 28.1 19.5 28.1C21.0301 28.1 22.4034 27.838 23.573 27.2077C24.0106 26.9719 24.5565 27.1355 24.7923 27.5731C25.0281 28.0107 24.8645 28.5565 24.4269 28.7923C22.9177 29.6055 21.2261 29.9 19.5 29.9C13.7562 29.9 9.09998 25.2438 9.09998 19.5C9.09998 13.7562 13.7562 9.10001 19.5 9.10001C25.2437 9.10001 29.9 13.7562 29.9 19.5C29.9 21.209 29.4871 22.8242 28.7548 24.2487C28.5275 24.6908 27.9849 24.8649 27.5429 24.6377C27.1008 24.4104 26.9267 23.8678 27.1539 23.4258C27.7584 22.2499 28.1 20.9161 28.1 19.5C28.1 14.7504 24.2496 10.9 19.5 10.9Z"
        fill="#B5FF00" />
    <path fill-rule="evenodd" clip-rule="evenodd"
        d="M27.7154 23.1462C28.1869 22.989 28.6966 23.2439 28.8538 23.7154L30.5376 28.7667C30.9024 29.8612 29.8611 30.9024 28.7667 30.5376L23.7154 28.8538C23.2438 28.6966 22.989 28.187 23.1462 27.7154C23.3033 27.2439 23.813 26.989 24.2846 27.1462L28.577 28.577L27.1462 24.2846C26.989 23.8131 27.2438 23.3034 27.7154 23.1462Z"
        fill="#B5FF00" />
    <path fill-rule="evenodd" clip-rule="evenodd"
        d="M15.1 17C15.1 16.503 15.5029 16.1 16 16.1H23C23.497 16.1 23.9 16.503 23.9 17C23.9 17.4971 23.497 17.9 23 17.9H16C15.5029 17.9 15.1 17.4971 15.1 17Z"
        fill="#B5FF00" />
    <path fill-rule="evenodd" clip-rule="evenodd"
        d="M15.1 22C15.1 21.503 15.5029 21.1 16 21.1L23 21.1C23.497 21.1 23.9 21.503 23.9 22C23.9 22.4971 23.497 22.9 23 22.9L16 22.9C15.5029 22.9 15.1 22.4971 15.1 22Z"
        fill="#B5FF00" />
</svg>
    