<svg width="40" height="40" viewBox="0 0 40 40" fill="none" xmlns="http://www.w3.org/2000/svg">
    <path d="M0 20C0 8.95431 8.95431 0 20 0C31.0457 0 40 8.95431 40 20C40 31.0457 31.0457 40 20 40C8.95431 40 0 31.0457 0 20Z" fill="black"/>
    <path fill-rule="evenodd" clip-rule="evenodd" d="M13.9393 13.9393C14.5251 13.3536 15.4749 13.3536 16.0607 13.9393L20 17.8787L23.9393 13.9393C24.5251 13.3536 25.4749 13.3536 26.0607 13.9393C26.6464 14.5251 26.6464 15.4749 26.0607 16.0607L22.1213 20L26.0607 23.9393C26.6464 24.5251 26.6464 25.4749 26.0607 26.0607C25.4749 26.6464 24.5251 26.6464 23.9393 26.0607L20 22.1213L16.0607 26.0607C15.4749 26.6464 14.5251 26.6464 13.9393 26.0607C13.3536 25.4749 13.3536 24.5251 13.9393 23.9393L17.8787 20L13.9393 16.0607C13.3536 15.4749 13.3536 14.5251 13.9393 13.9393Z" fill="#76837B"/>
    </svg>
    