<svg width="40" height="40" viewBox="0 0 40 40" fill="none" xmlns="http://www.w3.org/2000/svg">
    <path d="M0 20C0 8.95431 8.95431 0 20 0C31.0457 0 40 8.95431 40 20C40 31.0457 31.0457 40 20 40C8.95431 40 0 31.0457 0 20Z" fill="black"/>
    <path fill-rule="evenodd" clip-rule="evenodd" d="M20 11.9C19.5143 11.9 19.0353 11.9858 18.5911 12.1507C18.1469 12.3156 17.7492 12.5551 17.4186 12.8514C17.0882 13.1475 16.8321 13.4936 16.6595 13.867C16.6191 13.9544 16.5834 14.043 16.5524 14.1326H23.4476C23.4166 14.043 23.3809 13.9544 23.3405 13.867C23.1679 13.4936 22.9117 13.1475 22.5813 12.8514C22.2507 12.5551 21.8531 12.3156 21.4089 12.1507C20.9646 11.9858 20.4856 11.9 20 11.9ZM25.3095 14.1326C25.2385 13.7824 25.1261 13.4401 24.9744 13.1118C24.6947 12.5067 24.2879 11.9637 23.7826 11.5109C23.2775 11.0582 22.683 10.7037 22.0352 10.4632C21.3876 10.2228 20.6962 10.1 20 10.1C19.3037 10.1 18.6124 10.2228 17.9647 10.4632C17.317 10.7037 16.7225 11.0582 16.2174 11.5109C15.712 11.9637 15.3053 12.5067 15.0256 13.1118C14.8738 13.4401 14.7615 13.7824 14.6905 14.1326H11C10.5029 14.1326 10.1 14.5355 10.1 15.0326C10.1 15.5297 10.5029 15.9326 11 15.9326H12.1V20.1759C12.1 21.8353 12.3334 23.4864 12.7934 25.0799C13.0984 26.1364 13.4684 27.1844 14.099 28.0193C14.7617 28.8969 15.6797 29.4984 16.9683 29.7161L17.126 29.7428C17.7777 29.8529 18.9206 29.9 20 29.9C21.0793 29.9 22.2222 29.8529 22.8739 29.7428L23.0317 29.7161C24.3203 29.4984 25.2382 28.8969 25.901 28.0193C26.5316 27.1844 26.9015 26.1364 27.2065 25.0799C27.6665 23.4864 27.9 21.8353 27.9 20.1758V15.9326H29C29.497 15.9326 29.9 15.5297 29.9 15.0326C29.9 14.5355 29.497 14.1326 29 14.1326H25.3095ZM26.1 15.9326H13.9V20.1759C13.9 21.6665 14.1097 23.1496 14.5228 24.5807C14.8199 25.6096 15.1176 26.3814 15.5353 26.9345C15.9209 27.445 16.432 27.8 17.2682 27.9413L17.4259 27.9679C17.9156 28.0507 18.926 28.1 20 28.1C21.0739 28.1 22.0843 28.0507 22.574 27.9679L22.7317 27.9413C23.5679 27.8 24.0791 27.445 24.4646 26.9345C24.8824 26.3814 25.1801 25.6097 25.4771 24.5807C25.8902 23.1496 26.1 21.6665 26.1 20.1758V15.9326Z" fill="#76837B"/>
    <path fill-rule="evenodd" clip-rule="evenodd" d="M18 19.1C18.497 19.1 18.9 19.5029 18.9 20V23C18.9 23.4971 18.497 23.9 18 23.9C17.5029 23.9 17.1 23.4971 17.1 23V20C17.1 19.5029 17.5029 19.1 18 19.1ZM22 19.1C22.497 19.1 22.9 19.5029 22.9 20V23C22.9 23.4971 22.497 23.9 22 23.9C21.5029 23.9 21.1 23.4971 21.1 23V20C21.1 19.5029 21.5029 19.1 22 19.1Z" fill="#76837B"/>
    </svg>
    