<svg width="40" height="40" viewBox="0 0 40 40" fill="none" xmlns="http://www.w3.org/2000/svg">
    <path d="M0 20C0 8.95431 8.95431 0 20 0C31.0457 0 40 8.95431 40 20C40 31.0457 31.0457 40 20 40C8.95431 40 0 31.0457 0 20Z" fill="#393847"/>
    <path fill-rule="evenodd" clip-rule="evenodd" d="M20 14.2388C19.8269 13.9769 19.6244 13.7117 19.3869 13.4585C18.4785 12.49 17.108 11.7371 15.0493 11.7371C12.6219 11.7371 10.8801 13.6402 10.2628 15.8516C9.63608 18.0968 10.0795 20.8613 12.1433 22.9543C14.9275 25.7778 17.9289 27.7249 19.357 28.4977C19.5324 28.6595 19.7643 28.745 20 28.7365C20.2357 28.745 20.4676 28.6595 20.6429 28.4977C22.0711 27.7249 25.0724 25.7778 27.8566 22.9543C29.9205 20.8613 30.3639 18.0968 29.7372 15.8516C29.1199 13.6402 27.378 11.7371 24.9507 11.7371C22.8919 11.7371 21.5215 12.49 20.6131 13.4585C20.3755 13.7117 20.1731 13.9769 20 14.2388Z" fill="url(#paint0_linear_16123_21867)"/>
    <path fill-rule="evenodd" clip-rule="evenodd" d="M19.9396 14.1491C19.7802 13.9166 19.5973 13.6828 19.3869 13.4585C18.4785 12.49 17.108 11.7371 15.0493 11.7371C12.6219 11.7371 10.8801 13.6402 10.2628 15.8516C9.63608 18.0968 10.0795 20.8613 12.1433 22.9543C14.9275 25.7778 17.9289 27.7249 19.357 28.4977C19.5324 28.6595 19.7643 28.745 20 28.7365C20.2357 28.745 20.4676 28.6595 20.6429 28.4977C22.0711 27.7249 25.0724 25.7778 27.8566 22.9543C29.9205 20.8613 30.3639 18.0968 29.7372 15.8516C29.1199 13.6402 27.378 11.7371 24.9507 11.7371C22.8919 11.7371 21.5215 12.49 20.6131 13.4585C20.4026 13.6828 20.2197 13.9166 20.0604 14.1491C20.0399 14.179 20.0197 14.2089 20 14.2388C19.9802 14.2089 19.9601 14.179 19.9396 14.1491ZM20 14.0605C19.8434 13.8349 19.6645 13.6083 19.4598 13.3901C18.5326 12.4015 17.1357 11.6371 15.0493 11.6371C12.5621 11.6371 10.7913 13.5864 10.1665 15.8247C9.53104 18.1011 9.98084 20.9037 12.0721 23.0245C14.8574 25.8491 17.8591 27.7992 19.2987 28.5799C19.4913 28.7531 19.7433 28.8449 20 28.8366C20.2566 28.8449 20.5087 28.7531 20.7013 28.5799C22.1409 27.7992 25.1426 25.8491 27.9278 23.0245C30.0191 20.9037 30.4689 18.1011 29.8335 15.8247C29.2087 13.5864 27.4379 11.6371 24.9507 11.6371C22.8643 11.6371 21.4674 12.4015 20.5402 13.3901C20.3355 13.6083 20.1566 13.8349 20 14.0605Z" fill="url(#paint1_linear_16123_21867)"/>
    <defs>
    <linearGradient id="paint0_linear_16123_21867" x1="20" y1="11.6371" x2="20" y2="28.8371" gradientUnits="userSpaceOnUse">
    <stop stop-color="#A899F3"/>
    <stop offset="0.9999" stop-color="#FAC8E4"/>
    </linearGradient>
    <linearGradient id="paint1_linear_16123_21867" x1="20" y1="11.6371" x2="20" y2="28.8371" gradientUnits="userSpaceOnUse">
    <stop stop-color="#A899F3"/>
    <stop offset="0.9999" stop-color="#FAC8E4"/>
    </linearGradient>
    </defs>
    </svg>
    