<svg width="40" height="40" viewBox="0 0 40 40" fill="none" xmlns="http://www.w3.org/2000/svg">
    <path d="M0 20C0 8.95431 8.95431 0 20 0C31.0457 0 40 8.95431 40 20C40 31.0457 31.0457 40 20 40C8.95431 40 0 31.0457 0 20Z" fill="#393847"/>
    <path fill-rule="evenodd" clip-rule="evenodd" d="M19.0613 16.3624C19.0729 16.7074 19.2766 17.0313 19.6102 17.1762C19.7374 17.2315 19.8702 17.255 20 17.2501C20.1297 17.255 20.2626 17.2315 20.3898 17.1762C20.7233 17.0313 20.9271 16.7074 20.9387 16.3624C21.1567 15.8467 21.4339 15.25 21.9261 14.7251C22.4902 14.1238 23.385 13.5749 24.9507 13.5749C26.3176 13.5749 27.5206 14.6583 27.9935 16.3522C28.4569 18.0124 28.1358 20.0721 26.5752 21.6548C24.0605 24.205 21.3593 25.9943 20 26.7602C18.6407 25.9943 15.9395 24.205 13.4248 21.6548C11.8642 20.0721 11.5431 18.0124 12.0065 16.3522C12.4793 14.6583 13.6824 13.5749 15.0493 13.5749C16.615 13.5749 17.5098 14.1238 18.0738 14.7251C18.5661 15.25 18.8433 15.8467 19.0613 16.3624ZM20 14.2388C19.8269 13.9769 19.6244 13.7117 19.3869 13.4585C18.4785 12.49 17.108 11.7371 15.0493 11.7371C12.6219 11.7371 10.8801 13.6402 10.2628 15.8516C9.63608 18.0968 10.0795 20.8613 12.1433 22.9543C14.9275 25.7778 17.9289 27.7249 19.357 28.4977C19.5324 28.6595 19.7643 28.745 20 28.7365C20.2357 28.745 20.4676 28.6595 20.6429 28.4977C22.0711 27.7249 25.0724 25.7778 27.8566 22.9543C29.9205 20.8613 30.3639 18.0968 29.7372 15.8516C29.1199 13.6402 27.378 11.7371 24.9507 11.7371C22.8919 11.7371 21.5215 12.49 20.6131 13.4585C20.3755 13.7117 20.1731 13.9769 20 14.2388Z" fill="url(#paint0_linear_16123_21855)"/>
    <path fill-rule="evenodd" clip-rule="evenodd" d="M18.9622 16.3848C18.7461 15.875 18.4752 15.2992 18.0009 14.7935C17.4557 14.2123 16.5873 13.6749 15.0493 13.6749C13.7412 13.6749 12.5678 14.7133 12.1028 16.3791C11.6481 18.0079 11.9628 20.0297 13.496 21.5845C15.9729 24.0965 18.6319 25.8681 20 26.6453C21.3681 25.8681 24.0271 24.0965 26.504 21.5845C28.0372 20.0297 28.3518 18.0079 27.8972 16.3791C27.4322 14.7133 26.2588 13.6749 24.9507 13.6749C23.4127 13.6749 22.5442 14.2123 21.9991 14.7935C21.5247 15.2992 21.2539 15.875 21.0378 16.3848C21.0182 16.7592 20.7943 17.1095 20.4297 17.2679C20.2896 17.3288 20.1432 17.355 20 17.3502C19.8568 17.355 19.7103 17.3288 19.5703 17.2679C19.2057 17.1095 18.9817 16.7592 18.9622 16.3848ZM20 17.2501C19.8702 17.255 19.7374 17.2315 19.6102 17.1762C19.2766 17.0313 19.0729 16.7074 19.0613 16.3624C18.8433 15.8467 18.5661 15.25 18.0738 14.7251C17.5098 14.1238 16.615 13.5749 15.0493 13.5749C13.6824 13.5749 12.4793 14.6583 12.0065 16.3522C11.5431 18.0124 11.8642 20.0721 13.4248 21.6548C15.9395 24.205 18.6407 25.9943 20 26.7602C21.3593 25.9943 24.0605 24.205 26.5752 21.6548C28.1358 20.0721 28.4569 18.0124 27.9935 16.3522C27.5206 14.6583 26.3176 13.5749 24.9507 13.5749C23.385 13.5749 22.4902 14.1238 21.9261 14.7251C21.4339 15.25 21.1567 15.8467 20.9387 16.3624C20.9271 16.7074 20.7233 17.0313 20.3898 17.1762C20.2626 17.2315 20.1297 17.255 20 17.2501ZM19.9396 14.1491C19.7802 13.9166 19.5973 13.6828 19.3869 13.4585C18.4785 12.49 17.108 11.7371 15.0493 11.7371C12.6219 11.7371 10.8801 13.6402 10.2628 15.8516C9.63608 18.0968 10.0795 20.8613 12.1433 22.9543C14.9275 25.7778 17.9289 27.7249 19.357 28.4977C19.5324 28.6595 19.7643 28.745 20 28.7365C20.2357 28.745 20.4676 28.6595 20.6429 28.4977C22.0711 27.7249 25.0724 25.7778 27.8566 22.9543C29.9205 20.8613 30.3639 18.0968 29.7372 15.8516C29.1199 13.6402 27.378 11.7371 24.9507 11.7371C22.8919 11.7371 21.5215 12.49 20.6131 13.4585C20.4026 13.6828 20.2197 13.9166 20.0604 14.1491C20.0399 14.179 20.0197 14.2089 20 14.2388C19.9802 14.2089 19.9601 14.179 19.9396 14.1491ZM20 14.0605C19.8434 13.8349 19.6645 13.6083 19.4598 13.3901C18.5326 12.4015 17.1357 11.6371 15.0493 11.6371C12.5621 11.6371 10.7913 13.5864 10.1665 15.8247C9.53104 18.1011 9.98084 20.9037 12.0721 23.0245C14.8574 25.8491 17.8591 27.7992 19.2987 28.5799C19.4913 28.7531 19.7433 28.8449 20 28.8366C20.2566 28.8449 20.5087 28.7531 20.7013 28.5799C22.1409 27.7992 25.1426 25.8491 27.9278 23.0245C30.0191 20.9037 30.4689 18.1011 29.8335 15.8247C29.2087 13.5864 27.4379 11.6371 24.9507 11.6371C22.8643 11.6371 21.4674 12.4015 20.5402 13.3901C20.3355 13.6083 20.1566 13.8349 20 14.0605Z" fill="url(#paint1_linear_16123_21855)"/>
    <defs>
    <linearGradient id="paint0_linear_16123_21855" x1="20" y1="11.6371" x2="20" y2="28.8371" gradientUnits="userSpaceOnUse">
    <stop stop-color="#A899F3"/>
    <stop offset="0.9999" stop-color="#FAC8E4"/>
    </linearGradient>
    <linearGradient id="paint1_linear_16123_21855" x1="20" y1="11.6371" x2="20" y2="28.8371" gradientUnits="userSpaceOnUse">
    <stop stop-color="#A899F3"/>
    <stop offset="0.9999" stop-color="#FAC8E4"/>
    </linearGradient>
    </defs>
    </svg>
    