<svg width="40" height="40" viewBox="0 0 40 40" fill="none" xmlns="http://www.w3.org/2000/svg">
    <path
        d="M0 20C0 8.95431 8.95431 0 20 0C31.0457 0 40 8.95431 40 20C40 31.0457 31.0457 40 20 40C8.95431 40 0 31.0457 0 20Z"
        fill="black" />
    <path fill-rule="evenodd" clip-rule="evenodd"
        d="M20.4793 25.6783C19.9472 25.2055 19.8932 24.3843 20.3589 23.8439L22.9821 20.8L14.2804 20.8C13.5732 20.8 13 20.218 13 19.5C13 18.782 13.5732 18.2 14.2804 18.2L22.9821 18.2L20.3589 15.1561C19.8932 14.6157 19.9472 13.7945 20.4793 13.3217C21.0115 12.8489 21.8204 12.9036 22.2861 13.444L26.6198 18.4727C27.1267 19.0609 27.1267 19.9391 26.6198 20.5273L22.2861 25.556C21.8204 26.0964 21.0115 26.1511 20.4793 25.6783Z"
        fill="#76837B" />
</svg>
    