<svg width="18" height="19" viewBox="0 0 18 19" fill="none" xmlns="http://www.w3.org/2000/svg">
    <path fill-rule="evenodd" clip-rule="evenodd"
        d="M9 2.75C5.27208 2.75 2.25 5.77208 2.25 9.5C2.25 13.2279 5.27208 16.25 9 16.25C12.7279 16.25 15.75 13.2279 15.75 9.5C15.75 5.77208 12.7279 2.75 9 2.75ZM0.75 9.5C0.75 4.94365 4.44365 1.25 9 1.25C13.5563 1.25 17.25 4.94365 17.25 9.5C17.25 14.0563 13.5563 17.75 9 17.75C4.44365 17.75 0.75 14.0563 0.75 9.5Z"
        fill="#B5FF00" />
    <path fill-rule="evenodd" clip-rule="evenodd"
        d="M9.30544 13.0644C8.99371 12.7917 8.96212 12.3178 9.23488 12.0061L10.7715 10.25L5.67432 10.25C5.2601 10.25 4.92432 9.9142 4.92432 9.49999C4.92432 9.08578 5.2601 8.74999 5.67432 8.74999L10.7715 8.74999L9.23488 6.99387C8.96212 6.68214 8.99371 6.20832 9.30544 5.93556C9.61716 5.6628 10.091 5.69438 10.3637 6.00611L12.9023 8.90734C13.1992 9.24666 13.1992 9.75332 12.9023 10.0926L10.3637 12.9939C10.091 13.3056 9.61716 13.3372 9.30544 13.0644Z"
        fill="#B5FF00" />
</svg>
    