<svg width="40" height="40" viewBox="0 0 40 40" fill="none" xmlns="http://www.w3.org/2000/svg">
    <path d="M0 20C0 8.95431 8.95431 0 20 0C31.0457 0 40 8.95431 40 20C40 31.0457 31.0457 40 20 40C8.95431 40 0 31.0457 0 20Z" fill="black"/>
    <path fill-rule="evenodd" clip-rule="evenodd" d="M26.6996 19.9883L16.3 13.5115L16.3 26.4885L26.6996 20.0117C26.6998 20.008 26.7 20.0041 26.7 20C26.7 19.9959 26.6998 19.992 26.6996 19.9883ZM27.9655 21.9328C29.3448 21.0738 29.3448 18.9262 27.9655 18.0672L17.1034 11.3023C15.7241 10.4433 14 11.5171 14 13.2352V26.7648C14 28.4829 15.7241 29.5567 17.1034 28.6977L27.9655 21.9328Z" fill="#76837B"/>
    </svg>
    