<svg width="40" height="40" viewBox="0 0 40 40" fill="none" xmlns="http://www.w3.org/2000/svg">
    <path d="M0 20C0 8.95431 8.95431 0 20 0C31.0457 0 40 8.95431 40 20C40 31.0457 31.0457 40 20 40C8.95431 40 0 31.0457 0 20Z" fill="#31402C"/>
    <path fill-rule="evenodd" clip-rule="evenodd" d="M25.6992 10.7681L27.2398 12.3043C28.2534 13.315 28.2534 14.932 27.2398 15.9427L17.6855 25.4695L13.0637 25.9547H12.942C12.3744 25.9547 11.9285 25.4695 12.0096 24.9036L12.4961 20.295L22.0504 10.7681C22.5369 10.283 23.2261 10 23.8748 10C24.5235 10 25.2127 10.283 25.6992 10.7681ZM14.0772 23.8929L16.7936 23.6099L21.4423 19.0151L22.6991 17.7619L20.226 15.2958L18.9692 16.5491L14.361 21.1844L14.0772 23.8929ZM24.0775 16.3874L25.8614 14.5682C26.1046 14.3256 26.1046 13.9214 25.8614 13.6788L24.3208 12.1426C24.1586 11.9809 23.9559 11.9405 23.8748 11.9405C23.7937 11.9405 23.591 11.9809 23.4288 12.1426L21.6044 13.9214L24.0775 16.3874ZM12.8889 27.7274C12.398 27.7274 12 28.1242 12 28.6137C12 29.1033 12.398 29.5001 12.8889 29.5001H27.1111C27.602 29.5001 28 29.1033 28 28.6137C28 28.1242 27.602 27.7274 27.1111 27.7274H12.8889Z" fill="#B5FF00"/>
    </svg>
    