<svg xmlns="http://www.w3.org/2000/svg" width="24" height="24" fill="none" viewBox="0 0 24 24">
  <path fill="#B5FF00" d="M11.41 8.41a.628.628 0 0 1 1.18 0l.71 1.92a.624.624 0 0 0 .37.37l1.92.71a.628.628 0 0 1 0 1.18l-1.92.71a.628.628 0 0 0-.37.37l-.71 1.92a.628.628 0 0 1-1.18 0l-.71-1.92a.628.628 0 0 0-.37-.37l-1.92-.71a.628.628 0 0 1 0-1.18l1.92-.71a.628.628 0 0 0 .37-.37l.71-1.92ZM3 2a1 1 0 1 1-2 0 1 1 0 0 1 2 0Zm20 0a1 1 0 1 1-2 0 1 1 0 0 1 2 0Z"/>
  <path fill="#B5FF00" fill-rule="evenodd" d="M12 19.2a7.2 7.2 0 1 0 0-14.4 7.2 7.2 0 0 0 0 14.4Zm0 1.8a9 9 0 1 0 0-18 9 9 0 0 0 0 18Z" clip-rule="evenodd"/>
  <path fill="#B5FF00" d="M3 22a1 1 0 1 1-2 0 1 1 0 0 1 2 0Zm20 0a1 1 0 1 1-2 0 1 1 0 0 1 2 0Z"/>
</svg>
