<svg xmlns="http://www.w3.org/2000/svg" width="24" height="24" fill="none" viewBox="0 0 24 24">
  <path fill="#B5FF00" d="M8.837 5.461c.228-.615 1.098-.615 1.326 0l.799 2.16a.707.707 0 0 0 .417.417l2.16.8c.615.227.615 1.097 0 1.325l-2.16.799a.707.707 0 0 0-.417.417l-.8 2.16c-.227.615-1.097.615-1.325 0l-.799-2.16a.707.707 0 0 0-.417-.417l-2.16-.8c-.615-.227-.615-1.097 0-1.325l2.16-.799a.707.707 0 0 0 .417-.417l.8-2.16Z"/>
  <path fill="#B5FF00" fill-rule="evenodd" d="M9.5 16.3a6.8 6.8 0 1 0 0-13.6 6.8 6.8 0 0 0 0 13.6Zm0 1.7a8.5 8.5 0 1 0 0-17 8.5 8.5 0 0 0 0 17Z" clip-rule="evenodd"/>
  <path fill="#B5FF00" fill-rule="evenodd" d="M16.177 7.748a.85.85 0 0 1 1.064-.56 8.004 8.004 0 0 1 5.609 7.655c0 4.415-3.552 8.007-7.949 8.007-3.465 0-6.405-2.232-7.495-5.336a.85.85 0 1 1 1.604-.564c.86 2.452 3.177 4.2 5.891 4.2 3.445 0 6.249-2.817 6.249-6.307 0-2.841-1.86-5.24-4.412-6.031a.85.85 0 0 1-.56-1.064Z" clip-rule="evenodd"/>
  <path fill="#B5FF00" fill-rule="evenodd" d="M12.788 16.05a.702.702 0 0 1 .25.33l.8 2.159c.227.615 1.097.615 1.325 0l.799-2.16a.707.707 0 0 1 .417-.417l2.16-.8c.615-.227.615-1.097 0-1.325l-2.16-.799a.706.706 0 0 1-.335-.26c-.642.974-1.758 2.313-3.256 3.273Z" clip-rule="evenodd"/>
  <path fill="#B5FF00" d="M23 2a1 1 0 1 1-2 0 1 1 0 0 1 2 0ZM3 22a1 1 0 1 1-2 0 1 1 0 0 1 2 0Z"/>
</svg>
