<svg xmlns="http://www.w3.org/2000/svg" width="24" height="24" fill="none" viewBox="0 0 24 24">
  <path fill="#B5FF00" d="M11.41 5.41a.628.628 0 0 1 1.18 0l.71 1.92a.621.621 0 0 0 .37.37l1.92.71a.628.628 0 0 1 0 1.18l-1.92.71a.628.628 0 0 0-.37.37l-.71 1.92a.628.628 0 0 1-1.18 0l-.71-1.92a.628.628 0 0 0-.37-.37l-1.92-.71a.628.628 0 0 1 0-1.18l1.92-.71a.628.628 0 0 0 .37-.37l.71-1.92Z"/>
  <path fill="#B5FF00" fill-rule="evenodd" d="M12 15.3a6.3 6.3 0 1 0 0-12.6 6.3 6.3 0 0 0 0 12.6Zm0 1.7a8 8 0 1 0 0-16 8 8 0 0 0 0 16Z" clip-rule="evenodd"/>
  <path fill="#B5FF00" fill-rule="evenodd" d="M18.637 8.554a.85.85 0 0 1 1.189-.178 8.111 8.111 0 0 1 2.803 9.2c-1.478 4.224-6.078 6.47-10.284 4.999-3.314-1.16-5.38-4.28-5.384-7.614a.85.85 0 1 1 1.7-.002c.003 2.643 1.64 5.1 4.246 6.011 3.307 1.157 6.945-.605 8.117-3.956a6.411 6.411 0 0 0-2.21-7.272.85.85 0 0 1-.177-1.188Z" clip-rule="evenodd"/>
  <path fill="#B5FF00" fill-rule="evenodd" d="M12.309 21.372a.85.85 0 0 1-.547 1.07 8.45 8.45 0 0 1-2.605.408c-4.367 0-8.007-3.323-8.007-7.54 0-2.4 1.188-4.523 3.011-5.895a.85.85 0 1 1 1.023 1.359c-1.437 1.08-2.334 2.718-2.334 4.535 0 3.173 2.769 5.841 6.307 5.841.731 0 1.431-.115 2.081-.325a.85.85 0 0 1 1.07.547ZM14 16.747a.587.587 0 0 1 .21.276l.67 1.812a.593.593 0 0 0 1.113 0l.67-1.812a.593.593 0 0 1 .35-.35l1.813-.671a.593.593 0 0 0 0-1.113l-1.812-.67a.594.594 0 0 1-.282-.219c-.538.817-1.475 1.941-2.732 2.747Z" clip-rule="evenodd"/>
  <path fill="#B5FF00" d="M23 2a1 1 0 1 1-2 0 1 1 0 0 1 2 0ZM3 2a1 1 0 1 1-2 0 1 1 0 0 1 2 0Z"/>
</svg>
