<svg xmlns="http://www.w3.org/2000/svg" width="24" height="24" fill="none" viewBox="0 0 24 24">
  <path fill="#B5FF00" d="M7.558 5.308a.471.471 0 0 1 .884 0l.532 1.44c.048.128.15.23.279.278l1.44.532c.41.152.41.732 0 .884l-1.44.532a.471.471 0 0 0-.279.279l-.532 1.44a.471.471 0 0 1-.884 0l-.532-1.44a.471.471 0 0 0-.279-.279l-1.44-.532a.471.471 0 0 1 0-.884l1.44-.532a.471.471 0 0 0 .279-.279l.532-1.44Z"/>
  <path fill="#B5FF00" fill-rule="evenodd" d="M8 13.3A5.3 5.3 0 1 0 8 2.7a5.3 5.3 0 0 0 0 10.6ZM8 15A7 7 0 1 0 8 1a7 7 0 0 0 0 14Z" clip-rule="evenodd"/>
  <path fill="#B5FF00" fill-rule="evenodd" d="M3.2 11.461 3.5 13l.706.118a5.3 5.3 0 0 0 6.838 7.154l1.851.926A7 7 0 0 1 3.2 11.46Zm10.04-7.367a5.3 5.3 0 0 1 6.676 7.42c.446.307.823.638 1.084.986.074.099.11.207.113.324a7 7 0 0 0-9.733-9.659c.678.108 1.384.341 1.86.93Z" clip-rule="evenodd"/>
  <path fill="#B5FF00" d="M15.558 13.308a.471.471 0 0 1 .884 0l.532 1.44c.048.128.15.23.279.277l1.44.533c.41.152.41.732 0 .884l-1.44.532a.471.471 0 0 0-.279.279l-.532 1.44a.471.471 0 0 1-.884 0l-.533-1.44a.471.471 0 0 0-.278-.279l-1.44-.532a.471.471 0 0 1 0-.884l1.44-.533a.471.471 0 0 0 .278-.278l.533-1.44Z"/>
  <path fill="#B5FF00" fill-rule="evenodd" d="M9.263 14.092a7 7 0 1 0 5.62-5.004 8.647 8.647 0 0 1-.717 1.937A5.253 5.253 0 0 1 16 10.7a5.3 5.3 0 1 1-4.843 3.145 4.888 4.888 0 0 1-1.894.247Z" clip-rule="evenodd"/>
  <path fill="#B5FF00" d="M3 22a1 1 0 1 1-2 0 1 1 0 0 1 2 0ZM23 2a1 1 0 1 1-2 0 1 1 0 0 1 2 0Z"/>
</svg>
