<svg xmlns="http://www.w3.org/2000/svg" width="24" height="24" fill="none" viewBox="0 0 24 24">
  <path fill="#B5FF00" fill-rule="evenodd" d="M11 2.75A8.25 8.25 0 0 0 2.75 11v2A8.25 8.25 0 0 0 11 21.25h2A8.25 8.25 0 0 0 21.25 13v-2A8.25 8.25 0 0 0 13 2.75h-2ZM3.25 11A7.75 7.75 0 0 1 11 3.25h2A7.75 7.75 0 0 1 20.75 11v2A7.75 7.75 0 0 1 13 20.75h-2A7.75 7.75 0 0 1 3.25 13v-2Zm9.5-3a.75.75 0 0 0-1.5 0v3.04H8a.75.75 0 0 0 0 1.5h3.25V16a.75.75 0 0 0 1.5 0v-3.46H16a.75.75 0 0 0 0-1.5h-3.25V8Z" clip-rule="evenodd"/>
</svg>
