<svg xmlns="http://www.w3.org/2000/svg" width="24" height="24" fill="none" viewBox="0 0 24 24">
  <path fill="#B5FF00" d="M19 22a1 1 0 1 1-2 0 1 1 0 0 1 2 0Zm4-4a1 1 0 1 1-2 0 1 1 0 0 1 2 0ZM3 6a1 1 0 1 1-2 0 1 1 0 0 1 2 0Zm4-4a1 1 0 1 1-2 0 1 1 0 0 1 2 0Z"/>
  <path fill="#B5FF00" fill-rule="evenodd" d="m12 6.483-.652 2.69a2.955 2.955 0 0 1-2.175 2.175L6.483 12l2.69.652a2.955 2.955 0 0 1 2.175 2.175l.652 2.69.652-2.69a2.955 2.955 0 0 1 2.175-2.175l2.69-.652-2.69-.652a2.955 2.955 0 0 1-2.175-2.175L12 6.483Zm1.305-1.456c-.332-1.37-2.278-1.37-2.61 0l-.913 3.766c-.119.488-.5.87-.99.989l-3.765.913c-1.37.332-1.37 2.278 0 2.61l3.766.914c.488.118.87.5.989.988l.913 3.766c.332 1.37 2.278 1.37 2.61 0l.914-3.766c.118-.489.5-.87.988-.989l3.766-.913c1.37-.332 1.37-2.278 0-2.61l-3.766-.913c-.489-.119-.87-.5-.989-.99l-.913-3.765Zm-4.3 17.288a.9.9 0 0 1-1.158.528 11.681 11.681 0 0 1-6.677-6.42.9.9 0 1 1 1.66-.695 9.881 9.881 0 0 0 5.646 5.429.9.9 0 0 1 .529 1.158ZM22.315 9.02a.9.9 0 0 1-1.158-.527 9.88 9.88 0 0 0-5.488-5.66.9.9 0 0 1 .684-1.666 11.68 11.68 0 0 1 6.49 6.695.9.9 0 0 1-.528 1.159Z" clip-rule="evenodd"/>
</svg>
