<svg xmlns="http://www.w3.org/2000/svg" width="24" height="24" fill="none" viewBox="0 0 24 24">
  <path fill="#B5FF00" d="M6 23a1 1 0 1 1 0-2 1 1 0 0 1 0 2ZM18 3a1 1 0 1 1 0-2 1 1 0 0 1 0 2Zm4 4a1 1 0 1 1 0-2 1 1 0 0 1 0 2ZM10.695 5.027c.332-1.37 2.278-1.37 2.61 0l.914 3.766c.118.488.5.87.988.989l3.766.913c1.37.332 1.37 2.278 0 2.61l-3.766.914c-.489.118-.87.5-.989.988l-.913 3.766c-.332 1.37-2.278 1.37-2.61 0l-.913-3.766c-.119-.489-.5-.87-.99-.989l-3.765-.913c-1.37-.332-1.37-2.278 0-2.61l3.766-.913c.488-.119.87-.5.989-.99l.913-3.765Z"/>
  <path fill="#B5FF00" fill-rule="evenodd" d="M22.315 14.995a.9.9 0 0 1 .528 1.158 11.681 11.681 0 0 1-6.42 6.677.9.9 0 1 1-.695-1.66 9.881 9.881 0 0 0 5.429-5.646.9.9 0 0 1 1.158-.529ZM9.02 1.685a.9.9 0 0 1-.527 1.158 9.88 9.88 0 0 0-5.66 5.488.9.9 0 1 1-1.666-.684 11.68 11.68 0 0 1 6.695-6.49.9.9 0 0 1 1.159.528Z" clip-rule="evenodd"/>
  <path fill="#B5FF00" d="M2 19a1 1 0 1 1 0-2 1 1 0 0 1 0 2Z"/>
</svg>
