<svg xmlns="http://www.w3.org/2000/svg" width="24" height="24" fill="none" viewBox="0 0 24 24">
  <path fill="#B5FF00" d="M17.51 7.385c.125-.513.855-.513.98 0l.342 1.412a.504.504 0 0 0 .37.371l1.413.343c.513.124.513.854 0 .979l-1.412.342a.504.504 0 0 0-.371.37l-.343 1.413c-.124.513-.854.513-.979 0l-.342-1.412a.504.504 0 0 0-.37-.371l-1.413-.343a.556.556 0 0 1-.09-.03c-.421-.183-.391-.832.09-.948l1.412-.343a.504.504 0 0 0 .371-.37l.343-1.413Z"/>
  <path fill="#B5FF00" fill-rule="evenodd" d="M11.283 15.028a9.648 9.648 0 0 0-3.566 0c-.587.11-1.064.723-1.064 1.5v.267c0 .227.148.343.257.343h5.18c.109 0 .257-.116.257-.343v-.267c0-.777-.477-1.39-1.064-1.5Zm-3.838-1.836a11.112 11.112 0 0 1 4.11 0C12.989 13.46 14 14.899 14 16.528v.267c0 1.18-.822 2.205-1.91 2.205H6.91C5.822 19 5 17.975 5 16.795v-.267c0-1.63 1.011-3.067 2.445-3.336ZM7.277 1.83a.85.85 0 0 1-.662 1.003c-1.09.223-1.916.656-2.52 1.261-.606.605-1.04 1.432-1.262 2.52a.85.85 0 0 1-1.666-.34c.277-1.355.844-2.501 1.725-3.382.88-.88 2.027-1.448 3.382-1.725a.85.85 0 0 1 1.003.663Zm14.886 13.78a.85.85 0 0 1 .671.998c-.533 2.726-2.195 5.647-5.694 6.23a.85.85 0 1 1-.28-1.676c2.501-.417 3.84-2.496 4.306-4.88a.85.85 0 0 1 .997-.672ZM2 15.594c.47 0 .85.381.85.85 0 2.62 1.684 4.298 3.765 4.723a.85.85 0 0 1-.34 1.666c-2.81-.575-5.125-2.898-5.125-6.389 0-.469.38-.85.85-.85ZM9.5 10.2a1.7 1.7 0 1 0 0-3.4 1.7 1.7 0 0 0 0 3.4Zm0 1.8a3.5 3.5 0 1 0 0-7 3.5 3.5 0 0 0 0 7Z" clip-rule="evenodd"/>
  <path fill="#B5FF00" d="M17 2a1 1 0 1 1-2 0 1 1 0 0 1 2 0Zm5 2a1 1 0 1 1-2 0 1 1 0 0 1 2 0Zm-3 12a1 1 0 1 1-2 0 1 1 0 0 1 2 0Z"/>
</svg>
