<svg xmlns="http://www.w3.org/2000/svg" width="24" height="24" fill="none" viewBox="0 0 24 24">
  <path fill="#1E2432" d="M17.503 12.04c-.009-1.556.703-2.731 2.145-3.597-.807-1.14-2.025-1.768-3.634-1.891-1.523-.12-3.188.878-3.797.878-.644 0-2.12-.836-3.278-.836C6.544 6.632 4 8.482 4 12.244c0 1.111.206 2.26.618 3.444.55 1.557 2.531 5.375 4.6 5.311 1.08-.025 1.844-.76 3.252-.76 1.364 0 2.072.76 3.278.76 2.085-.03 3.879-3.5 4.402-5.06-2.797-1.303-2.647-3.818-2.647-3.899Zm-2.429-6.965C16.245 3.701 16.138 2.45 16.104 2c-1.034.06-2.231.696-2.913 1.48-.751.84-1.193 1.88-1.099 3.05 1.12.085 2.141-.483 2.982-1.455Z"/>
</svg>
