<svg xmlns="http://www.w3.org/2000/svg" width="24" height="24" fill="none" viewBox="0 0 24 24">
  <path fill="#B5FF00" fill-rule="evenodd" d="M12 3a9 9 0 1 0 0 18 9 9 0 0 0 0-18ZM1 12C1 5.925 5.925 1 12 1s11 4.925 11 11-4.925 11-11 11S1 18.075 1 12Z" clip-rule="evenodd"/>
  <path fill="#B5FF00" fill-rule="evenodd" d="M11.659 7.247a1 1 0 0 1 .094 1.412L9.703 11H16.5a1 1 0 1 1 0 2H9.704l2.049 2.341a1 1 0 0 1-1.506 1.318L6.863 12.79a1.2 1.2 0 0 1 0-1.58l3.384-3.868a1 1 0 0 1 1.412-.095Z" clip-rule="evenodd"/>
</svg>
