<svg xmlns="http://www.w3.org/2000/svg" width="24" height="24" fill="none" viewBox="0 0 24 24">
  <path fill="#B5FF00" fill-rule="evenodd" d="M18.535 14.407a1 1 0 0 0 1.415 1.414l2.828-2.829a1 1 0 0 0 0-1.414L19.95 8.75a1 1 0 0 0-1.415 1.414l1.122 1.121h-9.314l1.121-1.121A1 1 0 0 0 10.05 8.75l-2.828 2.828a1 1 0 0 0 0 1.414l2.828 2.829a1 1 0 0 0 1.414-1.414l-1.12-1.122h9.313l-1.122 1.122Z" clip-rule="evenodd"/>
  <path fill="#B5FF00" fill-rule="evenodd" d="M2.1 7A4.9 4.9 0 0 1 7 2.1h4A4.9 4.9 0 0 1 15.9 7v.938a.9.9 0 1 1-1.8 0V7A3.1 3.1 0 0 0 11 3.9H7A3.1 3.1 0 0 0 3.9 7v10A3.1 3.1 0 0 0 7 20.1h4a3.1 3.1 0 0 0 3.1-3.1v-.063a.9.9 0 1 1 1.8 0V17a4.9 4.9 0 0 1-4.9 4.9H7A4.9 4.9 0 0 1 2.1 17V7Z" clip-rule="evenodd"/>
  <path fill="#B5FF00" d="M20.092 1.32c.104-.427.712-.427.816 0l.285 1.178a.42.42 0 0 0 .31.309l1.176.285c.428.104.428.712 0 .816l-1.177.285a.42.42 0 0 0-.309.31l-.285 1.176c-.104.428-.712.428-.816 0l-.285-1.177a.42.42 0 0 0-.31-.309l-1.176-.285c-.428-.104-.428-.712 0-.816l1.177-.285a.42.42 0 0 0 .309-.31l.285-1.176Z"/>
  <path fill="#B5FF00" fill-rule="evenodd" d="m20.5 1.776-.204.84a.923.923 0 0 1-.68.68l-.84.204.84.204a.923.923 0 0 1 .68.68l.204.84.204-.84a.923.923 0 0 1 .68-.68l.84-.204-.84-.204a.923.923 0 0 1-.68-.68l-.204-.84Zm.408-.455c-.104-.428-.712-.428-.816 0l-.285 1.177a.42.42 0 0 1-.31.309l-1.176.285c-.428.104-.428.712 0 .816l1.177.285a.42.42 0 0 1 .309.31l.285 1.176c.104.428.712.428.816 0l.285-1.177a.42.42 0 0 1 .31-.309l1.176-.285c.428-.104.428-.712 0-.816l-1.177-.285a.42.42 0 0 1-.309-.31l-.285-1.176Z" clip-rule="evenodd"/>
  <path fill="#B5FF00" d="M23 19a1 1 0 1 1-2 0 1 1 0 0 1 2 0Zm-3 3a1 1 0 1 1-2 0 1 1 0 0 1 2 0Z"/>
</svg>
