<svg xmlns="http://www.w3.org/2000/svg" width="24" height="24" fill="none" viewBox="0 0 24 24">
  <path fill="#B5FF00" d="M18 2a1 1 0 1 1-2 0 1 1 0 0 1 2 0ZM3.092 1.32c.104-.427.712-.427.816 0l.285 1.178a.42.42 0 0 0 .31.309l1.176.285c.428.104.428.712 0 .816l-1.177.285a.42.42 0 0 0-.309.31l-.285 1.176a.46.46 0 0 1-.025.075c-.153.351-.694.326-.79-.075l-.286-1.177a.42.42 0 0 0-.31-.309l-1.176-.285a.46.46 0 0 1-.075-.025c-.351-.153-.326-.694.075-.79l1.177-.286a.42.42 0 0 0 .309-.31l.285-1.176ZM23 4a1 1 0 1 1-2 0 1 1 0 0 1 2 0ZM6 18.5a1 1 0 1 1-2 0 1 1 0 0 1 2 0Z"/>
  <path fill="#B5FF00" fill-rule="evenodd" d="M17 14.5a5 5 0 1 1-10 0 5 5 0 0 1 10 0Zm-1.7 0a3.3 3.3 0 1 1-6.6 0 3.3 3.3 0 0 1 6.6 0Z" clip-rule="evenodd"/>
  <path fill="#B5FF00" fill-rule="evenodd" d="M8.639 5.649C9.129 4.639 10.129 4 11.225 4h1.55c1.095 0 2.096.638 2.586 1.649l.4.825c.198.408.602.666 1.044.666h2.804c1.596 0 2.891 1.335 2.891 2.982v8.895c0 1.648-1.294 2.983-2.891 2.983H4.39c-1.596 0-2.89-1.335-2.89-2.983v-8.895c0-1.647 1.294-2.982 2.891-2.982h2.804c.442 0 .846-.258 1.044-.666l.4-.825Zm2.586.13c-.442 0-.846.258-1.043.665l-.4.826c-.49 1.01-1.492 1.649-2.587 1.649H4.391c-.644 0-1.166.538-1.166 1.203v8.895c0 .665.522 1.204 1.166 1.204H19.61c.644 0 1.166-.539 1.166-1.204v-8.895c0-.665-.522-1.203-1.166-1.203h-2.804c-1.095 0-2.097-.639-2.586-1.65l-.4-.825a1.163 1.163 0 0 0-1.044-.665h-1.55Z" clip-rule="evenodd"/>
</svg>
