<svg xmlns="http://www.w3.org/2000/svg" width="24" height="24" fill="none" viewBox="0 0 24 24">
  <path fill="#B5FF00" fill-rule="evenodd" d="M12 3a9 9 0 1 0 0 18 9 9 0 0 0 0-18ZM1 12C1 5.925 5.925 1 12 1s11 4.925 11 11-4.925 11-11 11S1 18.075 1 12Z" clip-rule="evenodd"/>
  <path fill="#B5FF00" fill-rule="evenodd" d="M7.293 7.293a1 1 0 0 1 1.414 0L12 10.586l3.293-3.293a1 1 0 1 1 1.414 1.414L13.414 12l3.293 3.293a1 1 0 0 1-1.414 1.414L12 13.414l-3.293 3.293a1 1 0 0 1-1.414-1.414L10.586 12 7.293 8.707a1 1 0 0 1 0-1.414Z" clip-rule="evenodd"/>
</svg>
