<svg xmlns="http://www.w3.org/2000/svg" width="24" height="24" fill="none" viewBox="0 0 24 24">
  <path fill="#B5FF00" fill-rule="evenodd" d="M11.5 2.9a8.6 8.6 0 0 0 0 17.2c1.53 0 2.903-.262 4.073-.892a.9.9 0 1 1 .854 1.584c-1.51.813-3.2 1.108-4.927 1.108-5.744 0-10.4-4.656-10.4-10.4 0-5.744 4.656-10.4 10.4-10.4 5.744 0 10.4 4.656 10.4 10.4a10.36 10.36 0 0 1-1.145 4.749.9.9 0 1 1-1.601-.823A8.56 8.56 0 0 0 20.1 11.5a8.6 8.6 0 0 0-8.6-8.6Z" clip-rule="evenodd"/>
  <path fill="#B5FF00" fill-rule="evenodd" d="M19.715 15.146a.9.9 0 0 1 1.139.57l1.684 5.05c.364 1.095-.677 2.136-1.771 1.772l-5.052-1.684a.9.9 0 0 1 .57-1.708l4.292 1.431-1.43-4.292a.9.9 0 0 1 .568-1.139ZM7.1 9a.9.9 0 0 1 .9-.9h7a.9.9 0 1 1 0 1.8H8a.9.9 0 0 1-.9-.9Zm0 5a.9.9 0 0 1 .9-.9h7a.9.9 0 0 1 0 1.8H8a.9.9 0 0 1-.9-.9Z" clip-rule="evenodd"/>
</svg>
