<svg xmlns="http://www.w3.org/2000/svg" width="24" height="24" fill="none" viewBox="0 0 24 24">
  <path fill="#B5FF00" fill-rule="evenodd" d="M20.2 12a8.2 8.2 0 1 1-16.4 0 8.2 8.2 0 0 1 16.4 0Zm1.8 0c0 5.523-4.477 10-10 10S2 17.523 2 12 6.477 2 12 2s10 4.477 10 10Zm-11.304-1.304 4.4-1.692-1.323 4.3-4.73 1.689 1.653-4.297Zm6.362-1.948c.343-1.117-.75-2.138-1.84-1.719L9.883 9.08a1.4 1.4 0 0 0-.804.804L7.051 15.16c-.43 1.117.65 2.224 1.778 1.821l5.738-2.05a1.4 1.4 0 0 0 .867-.906l1.624-5.277Z" clip-rule="evenodd"/>
</svg>
