<svg xmlns="http://www.w3.org/2000/svg" width="24" height="24" fill="none" viewBox="0 0 24 24">
  <path fill="#B5FF00" fill-rule="evenodd" d="M2 8.213C2 7 2.984 6 4.221 6h11.558A2.217 2.217 0 0 1 18 8.213v11.574A2.217 2.217 0 0 1 15.779 22H4.221A2.217 2.217 0 0 1 2 19.787V8.213Zm2.221-.51a.505.505 0 0 0-.499.51v11.574c0 .293.234.51.499.51h11.558a.505.505 0 0 0 .499-.51V8.213a.505.505 0 0 0-.499-.51H4.221Z" clip-rule="evenodd"/>
  <path fill="#B5FF00" d="M4 2.5a1 1 0 1 1-2 0 1 1 0 0 1 2 0Z"/>
  <path fill="#B5FF00" fill-rule="evenodd" d="M8.1 2.5a.9.9 0 0 1 .9-.9h10.5a2.9 2.9 0 0 1 2.9 2.9V15a.9.9 0 1 1-1.8 0V4.5a1.1 1.1 0 0 0-1.1-1.1H9a.9.9 0 0 1-.9-.9Z" clip-rule="evenodd"/>
  <path fill="#B5FF00" d="M22.5 21a1 1 0 1 1-2 0 1 1 0 0 1 2 0Z"/>
</svg>
