<svg xmlns="http://www.w3.org/2000/svg" width="24" height="24" fill="none" viewBox="0 0 24 24">
  <path fill="#B5FF00" fill-rule="evenodd" d="M17.388 2.393c.244-.561 1.109-.521 1.265.12l.456 1.883c.06.245.25.436.495.495l1.883.456c.684.166.684 1.14 0 1.306l-1.883.456a.672.672 0 0 0-.495.495l-.456 1.883c-.166.684-1.14.684-1.306 0l-.456-1.883a.671.671 0 0 0-.494-.494l-1.884-.457-.008-.002c-.676-.172-.673-1.138.008-1.304l1.883-.456a.672.672 0 0 0 .495-.495l.456-1.883a.737.737 0 0 1 .04-.12ZM3 14a1 1 0 1 1-2 0 1 1 0 0 1 2 0Zm19-2a1 1 0 1 0 0-2 1 1 0 0 0 0 2ZM6 7.2a1.2 1.2 0 1 0 0-2.4 1.2 1.2 0 0 0 0 2.4Zm2.866-.31a3.008 3.008 0 0 1-1.87 1.94c.002.03.004.06.004.09v7.16a.86.86 0 0 1-.005.09 3.007 3.007 0 0 1 1.87 1.94A.914.914 0 0 1 9 18.1h6a.9.9 0 0 1 .134.01 3.007 3.007 0 0 1 1.976-1.976.914.914 0 0 1-.01-.134v-3a.9.9 0 1 1 1.8 0v3a.9.9 0 0 1-.01.134 3.001 3.001 0 1 1-3.756 3.756.914.914 0 0 1-.134.01H9a.914.914 0 0 1-.134-.01 3.001 3.001 0 1 1-3.861-3.72.86.86 0 0 1-.005-.09V8.92c0-.03.002-.06.005-.09a3.001 3.001 0 1 1 3.86-3.72A.906.906 0 0 1 9 5.1h2a.9.9 0 1 1 0 1.8H9a.908.908 0 0 1-.134-.01ZM7.2 19a1.2 1.2 0 1 1-2.4 0 1.2 1.2 0 0 1 2.4 0ZM18 20.2a1.2 1.2 0 1 0 0-2.4 1.2 1.2 0 0 0 0 2.4Z" clip-rule="evenodd"/>
</svg>
