<svg xmlns="http://www.w3.org/2000/svg" width="24" height="24" fill="none" viewBox="0 0 24 24">
  <path fill="#B5FF00" fill-rule="evenodd" d="M12 3.9c-.486 0-.965.086-1.409.25a3.667 3.667 0 0 0-1.172.701c-.33.296-.587.643-.76 1.016-.04.087-.076.176-.107.266h6.896a2.866 2.866 0 0 0-.107-.266 3.133 3.133 0 0 0-.76-1.016 3.666 3.666 0 0 0-1.172-.7A4.057 4.057 0 0 0 12 3.9Zm5.31 2.233a4.619 4.619 0 0 0-.336-1.021 4.935 4.935 0 0 0-1.191-1.601 5.466 5.466 0 0 0-1.748-1.048A5.857 5.857 0 0 0 12 2.1c-.696 0-1.388.123-2.035.363a5.466 5.466 0 0 0-1.748 1.048 4.934 4.934 0 0 0-1.191 1.6c-.152.33-.264.671-.336 1.022H3a.9.9 0 1 0 0 1.8h1.1v4.243c0 1.66.233 3.31.693 4.904.305 1.056.675 2.104 1.306 2.94.663.877 1.58 1.478 2.87 1.696l.157.027c.652.11 1.795.157 2.874.157 1.08 0 2.222-.047 2.874-.157l.158-.027c1.288-.218 2.206-.82 2.869-1.697.63-.835 1-1.883 1.305-2.94.46-1.593.694-3.244.694-4.903V7.933H21a.9.9 0 1 0 0-1.8h-3.69Zm.79 1.8H5.9v4.243c0 1.49.21 2.974.623 4.405.297 1.029.595 1.8 1.012 2.354.386.51.897.865 1.733 1.006l.158.027c.49.083 1.5.132 2.574.132 1.074 0 2.084-.05 2.574-.132l.158-.027c.836-.141 1.347-.496 1.733-1.006.417-.554.715-1.325 1.012-2.354a15.88 15.88 0 0 0 .623-4.405V7.933Z" clip-rule="evenodd"/>
  <path fill="#B5FF00" fill-rule="evenodd" d="M10 11.1a.9.9 0 0 1 .9.9v3a.9.9 0 1 1-1.8 0v-3a.9.9 0 0 1 .9-.9Zm4 0a.9.9 0 0 1 .9.9v3a.9.9 0 1 1-1.8 0v-3a.9.9 0 0 1 .9-.9Z" clip-rule="evenodd"/>
</svg>
