<svg xmlns="http://www.w3.org/2000/svg" width="24" height="24" fill="none" viewBox="0 0 24 24">
  <path fill="#B5FF00" fill-rule="evenodd" d="M3 15.1a.9.9 0 0 1 .9.9v1A3.1 3.1 0 0 0 7 20.1h10a3.1 3.1 0 0 0 3.1-3.1v-1a.9.9 0 1 1 1.8 0v1a4.9 4.9 0 0 1-4.9 4.9H7A4.9 4.9 0 0 1 2.1 17v-1a.9.9 0 0 1 .9-.9Z" clip-rule="evenodd"/>
  <path fill="#B5FF00" fill-rule="evenodd" d="M16.857 10.07a.9.9 0 0 1 0 1.274l-4.243 4.242a.9.9 0 0 1-1.273 0l-4.243-4.242a.9.9 0 0 1 1.273-1.273l3.606 3.606 3.607-3.606a.9.9 0 0 1 1.273 0Z" clip-rule="evenodd"/>
  <path fill="#B5FF00" fill-rule="evenodd" d="M11.977 15.85a.9.9 0 0 1-.9-.9V3.05a.9.9 0 1 1 1.8 0v11.9a.9.9 0 0 1-.9.9Z" clip-rule="evenodd"/>
</svg>
