<svg xmlns="http://www.w3.org/2000/svg" width="24" height="24" fill="none" viewBox="0 0 24 24">
  <path fill="#B5FF00" d="M10 3.8h4a6.2 6.2 0 0 1 6.2 6.2v1.5s0 1 .9 1 .9-1 .9-1V10a8 8 0 0 0-8-8h-4a8 8 0 0 0-8 8v4a8 8 0 0 0 8 8h4s1 0 1-.9-1-.9-1-.9h-4A6.2 6.2 0 0 1 3.8 14v-4A6.2 6.2 0 0 1 10 3.8Z"/>
  <path fill="#B5FF00" fill-rule="evenodd" d="M16.888 12.042c-.237-.136-.534-.218-.935-.04-.22.1-.458.279-.754.564-.185.18-.347.352-.527.544-.131.14-.272.29-.438.46-.715.732-1.67 1.578-3.084 1.817-1.177.2-2.099-.08-2.802-.293-.73-.222-1.146-.337-1.637-.219-.42.101-.88.56-1.29 1.236a7.177 7.177 0 0 0-.565 1.167l-.005.015v.001m0 0a.9.9 0 0 1-1.702-.588L4 17l-.85-.294v-.002l.001-.003.003-.01.01-.028.038-.1a8.985 8.985 0 0 1 .68-1.386c.442-.728 1.23-1.769 2.407-2.052.993-.24 1.843.02 2.493.22l.09.026c.688.21 1.252.364 1.978.242.827-.14 1.442-.63 2.097-1.301.109-.112.23-.241.358-.376.213-.226.44-.467.643-.664.35-.338.767-.688 1.271-.913a2.752 2.752 0 0 1 2.565.122 3.346 3.346 0 0 1 .909.771l.017.022.006.009.003.003.001.002s.001.001-.72.54l.721-.539a.9.9 0 1 1-1.449 1.07 1.555 1.555 0 0 0-.384-.317" clip-rule="evenodd"/>
  <path fill="#B5FF00" d="M11 9a2 2 0 1 1-4 0 2 2 0 0 1 4 0Z"/>
  <path fill="#B5FF00" fill-rule="evenodd" d="M20.707 22.707a1 1 0 0 1-1.414 0l-2-2a1 1 0 0 1 1.414-1.414l.293.293V16a1 1 0 1 1 2 0v3.586l.293-.293a1 1 0 0 1 1.414 1.414l-2 2Z" clip-rule="evenodd"/>
</svg>
