<svg xmlns="http://www.w3.org/2000/svg" width="24" height="24" fill="none" viewBox="0 0 24 24">
  <path fill="#B5FF00" fill-rule="evenodd" d="M15.707 9.793a1 1 0 0 1 0 1.414l-3 3a1 1 0 0 1-1.414 0l-3-3a1 1 0 0 1 1.414-1.414L12 12.086l2.293-2.293a1 1 0 0 1 1.414 0Z" clip-rule="evenodd"/>
  <path fill="#B5FF00" fill-rule="evenodd" d="M2.75 11A8.25 8.25 0 0 1 11 2.75h2A8.25 8.25 0 0 1 21.25 11v2A8.25 8.25 0 0 1 13 21.25h-2A8.25 8.25 0 0 1 2.75 13v-2ZM11 3.25A7.75 7.75 0 0 0 3.25 11v2A7.75 7.75 0 0 0 11 20.75h2A7.75 7.75 0 0 0 20.75 13v-2A7.75 7.75 0 0 0 13 3.25h-2Z" clip-rule="evenodd"/>
</svg>
