<svg xmlns="http://www.w3.org/2000/svg" width="24" height="24" fill="none" viewBox="0 0 24 24">
  <path fill="#B5FF00" fill-rule="evenodd" d="m17.7 2.768 1.54 1.536a2.557 2.557 0 0 1 0 3.639L9.686 17.47l-4.622.485h-.122a.926.926 0 0 1-.932-1.051l.486-4.609 9.554-9.527A2.656 2.656 0 0 1 15.875 2c.648 0 1.338.283 1.824.768ZM6.076 15.893l2.717-.283 4.648-4.595L14.7 9.762l-2.473-2.466-1.257 1.253-4.608 4.635-.284 2.709Zm10-7.506 1.784-1.819a.633.633 0 0 0 0-.89l-1.54-1.535a.693.693 0 0 0-.446-.203.693.693 0 0 0-.446.203L13.604 5.92l2.474 2.466ZM4.89 19.727a.888.888 0 1 0 0 1.773h14.22a.888.888 0 0 0 .889-.886.888.888 0 0 0-.889-.887H4.89Z" clip-rule="evenodd"/>
</svg>
