<svg xmlns="http://www.w3.org/2000/svg" width="24" height="24" fill="none" viewBox="0 0 24 24">
  <path fill="#B5FF00" fill-rule="evenodd" d="M4.627 5C3.176 5 2 6.138 2 7.541v8.918C2 17.862 3.176 19 4.627 19h14.746C20.824 19 22 17.862 22 16.459V7.54C22 6.138 20.824 5 19.373 5H4.627Zm-.174 1.53c.057-.01.115-.014.174-.014h14.746c.06 0 .117.005.174.014l-6.725 5.097-.822.596-.668-.485L4.453 6.53Zm-.886 1.593v8.336a1 1 0 0 0 .02.198.99.99 0 0 1 .018-.014l5.662-4.204-5.7-4.316ZM5.5 17.484h13.035l-5.172-4.02-.257.186a1.893 1.893 0 0 1-2.212 0l-.117-.085-5.277 3.92Zm14.913-.827a.997.997 0 0 0 .02-.198V8.124l-5.568 4.22 5.546 4.311.002.002Z" clip-rule="evenodd"/>
</svg>
