<svg xmlns="http://www.w3.org/2000/svg" width="24" height="24" fill="none" viewBox="0 0 24 24">
  <path fill="#B5FF00" fill-rule="evenodd" d="M7.136 14.364a.9.9 0 0 0-1.272 0l-4.5 4.5a.9.9 0 0 0 1.272 1.272l4.5-4.5a.9.9 0 0 0 0-1.272Zm2.5 3a.9.9 0 0 0-1.272 0l-3 3a.9.9 0 0 0 1.272 1.272l3-3a.9.9 0 0 0 0-1.272Z" clip-rule="evenodd"/>
  <path fill="#B5FF00" d="M21 18a1 1 0 1 0 2 0 1 1 0 0 0-2 0Zm-5 3a1 1 0 1 0 2 0 1 1 0 0 0-2 0ZM1 9a1 1 0 1 0 2 0 1 1 0 0 0-2 0Z"/>
  <path fill="#B5FF00" fill-rule="evenodd" d="m18.625 5.567-2.425.658a3 3 0 0 1-2.498-.433l-2.064-1.435-.124 2.51a3 3 0 0 1-1.183 2.243l-2.002 1.519 2.349.894a3 3 0 0 1 1.767 1.818l.825 2.373 1.576-1.958a3 3 0 0 1 2.275-1.118l2.513-.052-1.375-2.104a3 3 0 0 1-.36-2.51l.726-2.405Zm2.036-.515a1.2 1.2 0 0 0-1.463-1.506l-3.47.941a1.2 1.2 0 0 1-.999-.172l-2.952-2.053a1.2 1.2 0 0 0-1.883.926l-.178 3.591a1.2 1.2 0 0 1-.473.897L6.379 9.849a1.2 1.2 0 0 0 .298 2.078l3.36 1.278a1.2 1.2 0 0 1 .707.727l1.182 3.396a1.2 1.2 0 0 0 2.068.358l2.255-2.801a1.2 1.2 0 0 1 .91-.448l3.594-.074a1.2 1.2 0 0 0 .98-1.856l-1.968-3.01a1.2 1.2 0 0 1-.144-1.004l1.04-3.441Z" clip-rule="evenodd"/>
  <path fill="#B5FF00" d="M4.674 1.257c.083-.343.57-.343.652 0l.229.941c.03.122.125.218.247.247l.941.229c.343.083.343.57 0 .652l-.941.229a.336.336 0 0 0-.247.247l-.229.941c-.083.343-.57.343-.652 0l-.229-.941a.336.336 0 0 0-.247-.247l-.941-.229c-.343-.083-.343-.57 0-.652l.941-.229a.336.336 0 0 0 .247-.247l.229-.941Z"/>
</svg>
