<svg xmlns="http://www.w3.org/2000/svg" width="24" height="24" fill="none" viewBox="0 0 24 24">
  <path fill="#B5FF00" fill-rule="evenodd" d="M14.674 4.804a11.49 11.49 0 0 0-5.248 0 6.069 6.069 0 0 0-4.522 4.522 11.49 11.49 0 0 0 0 5.248c.08.344.19.676.325.994l1.042-1.042a4.76 4.76 0 0 1 6.732 0l.977.977.017-.017a3.797 3.797 0 0 1 5.024-.306c.068-.198.127-.4.175-.606a11.487 11.487 0 0 0 0-5.248 6.069 6.069 0 0 0-4.522-4.522Zm5.474 12.239c.357-.636.63-1.327.8-2.058a13.29 13.29 0 0 0 0-6.07 7.869 7.869 0 0 0-5.863-5.864 13.29 13.29 0 0 0-6.07 0 7.869 7.869 0 0 0-5.864 5.864 13.29 13.29 0 0 0 0 6.07 7.869 7.869 0 0 0 5.864 5.864c1.996.468 4.074.468 6.07 0a7.868 7.868 0 0 0 4.845-3.442.895.895 0 0 0 .218-.364Zm-1.998-.224a1.995 1.995 0 0 0-2.88-.06l-.017.017 1.438 1.437a6.08 6.08 0 0 0 1.46-1.394Zm-3.195 2.204L11.73 15.8a2.96 2.96 0 0 0-4.186 0l-1.34 1.339a6.066 6.066 0 0 0 3.222 1.958 11.49 11.49 0 0 0 5.248 0 6.07 6.07 0 0 0 .281-.073Z" clip-rule="evenodd"/>
  <path fill="#B5FF00" d="M14.301 7.353c.114-.47.784-.47.898 0l.314 1.295a.46.46 0 0 0 .34.34l1.294.313c.47.114.47.784 0 .898l-1.294.314a.462.462 0 0 0-.34.34l-.314 1.294c-.114.47-.784.47-.898 0l-.314-1.295a.462.462 0 0 0-.34-.34l-1.294-.313a.52.52 0 0 1-.083-.028c-.386-.168-.358-.763.083-.87l1.295-.314a.46.46 0 0 0 .34-.34l.313-1.294ZM22 21a1 1 0 1 1-2 0 1 1 0 0 1 2 0Zm0-18a1 1 0 1 1-2 0 1 1 0 0 1 2 0ZM4 21a1 1 0 1 1-2 0 1 1 0 0 1 2 0ZM4 3a1 1 0 1 1-2 0 1 1 0 0 1 2 0Z"/>
</svg>
