<svg xmlns="http://www.w3.org/2000/svg" width="24" height="24" fill="none" viewBox="0 0 24 24">
  <path fill="#B5FF00" d="M6.44 3.834c.27-1.112 1.85-1.112 2.12 0l.743 3.06c.096.397.406.707.803.803l3.06.742c1.112.27 1.112 1.852 0 2.121l-3.06.742a1.091 1.091 0 0 0-.803.804l-.742 3.06c-.27 1.112-1.852 1.112-2.122 0l-.742-3.06a1.091 1.091 0 0 0-.803-.803l-3.06-.743c-1.112-.27-1.112-1.85 0-2.12l3.06-.743a1.09 1.09 0 0 0 .803-.803l.742-3.06Zm8.907 10.679c.166-.684 1.14-.684 1.306 0l.456 1.883c.06.245.25.435.495.495l1.883.456c.684.166.684 1.14 0 1.306l-1.883.456a.672.672 0 0 0-.495.495l-.456 1.883c-.166.684-1.14.684-1.306 0l-.456-1.883a.672.672 0 0 0-.495-.495l-1.883-.456c-.684-.166-.684-1.14 0-1.306l1.883-.456a.672.672 0 0 0 .495-.495l.456-1.883Zm3.225-10.801c.109-.45.747-.45.856 0l.3 1.236a.44.44 0 0 0 .324.324l1.236.3c.45.109.45.747 0 .856l-1.236.3a.44.44 0 0 0-.324.324l-.3 1.236c-.109.45-.747.45-.856 0l-.3-1.236a.44.44 0 0 0-.324-.324l-1.236-.3c-.45-.109-.45-.747 0-.856l1.236-.3a.44.44 0 0 0 .324-.324l.3-1.236Z"/>
  <path fill="#B5FF00" fill-rule="evenodd" d="m19 3.931-.245 1.009a1.108 1.108 0 0 1-.815.815L16.93 6l1.009.245c.403.097.718.412.815.815L19 8.07l.245-1.009c.097-.403.412-.718.815-.815L21.07 6l-1.009-.245a1.108 1.108 0 0 1-.815-.815L19 3.93Zm.49-.546c-.125-.513-.855-.513-.98 0l-.342 1.412a.504.504 0 0 1-.37.371l-1.413.343c-.513.124-.513.854 0 .978l1.412.343a.504.504 0 0 1 .371.37l.343 1.413c.124.513.854.513.979 0l.342-1.412a.504.504 0 0 1 .37-.371l1.413-.343c.513-.124.513-.854 0-.978l-1.412-.343a.504.504 0 0 1-.371-.37l-.343-1.413Z" clip-rule="evenodd"/>
  <path fill="#B5FF00" d="M7 23a1 1 0 1 1 0-2 1 1 0 0 1 0 2Zm-5-4a1 1 0 1 1 0-2 1 1 0 0 1 0 2ZM13 3a1 1 0 1 1 0-2 1 1 0 0 1 0 2Zm9 11a1 1 0 1 1 0-2 1 1 0 0 1 0 2Z"/>
</svg>
