<svg xmlns="http://www.w3.org/2000/svg" width="24" height="24" fill="none" viewBox="0 0 24 24">
  <path fill="#4285F4" d="M21.624 12.719c0-.646-.052-1.295-.164-1.93H12.5v3.657h5.13a4.397 4.397 0 0 1-1.898 2.887v2.374h3.061c1.798-1.655 2.831-4.098 2.831-6.989Z"/>
  <path fill="#34A853" d="M12.5 22c2.562 0 4.723-.841 6.297-2.293l-3.062-2.374c-.851.58-1.95.908-3.232.908-2.478 0-4.58-1.672-5.333-3.92H4.01v2.447A9.5 9.5 0 0 0 12.5 22Z"/>
  <path fill="#FBBC04" d="M7.166 14.32a5.69 5.69 0 0 1 0-3.636V8.236H4.011a9.508 9.508 0 0 0 0 8.53l3.155-2.446Z"/>
  <path fill="#EA4335" d="M12.5 6.76a5.163 5.163 0 0 1 3.644 1.424l2.712-2.712A9.13 9.13 0 0 0 12.5 3.001a9.498 9.498 0 0 0-8.49 5.236l3.156 2.447c.75-2.252 2.855-3.924 5.334-3.924Z"/>
</svg>
