<svg xmlns="http://www.w3.org/2000/svg" width="24" height="24" fill="none" viewBox="0 0 24 24">
  <path fill="#B5FF00" fill-rule="evenodd" d="M11.384 4.296c-.37.286-.816.731-1.503 1.423l-4.171 4.2v4.718c0 2.324.477 3.346 1.039 3.896.473.463 1.118.723 2.061.976a46.046 46.046 0 0 1-.153-4.003c.006-.543.024-1.078.079-1.37l.019-.103a3.274 3.274 0 0 1 2.339-2.554 3.388 3.388 0 0 1 1.812 0 3.274 3.274 0 0 1 2.34 2.554l.018.103c.055.292.074.827.079 1.37a46.68 46.68 0 0 1-.03 1.989c-.025.7-.065 1.408-.121 1.993l-.002.02c.943-.252 1.589-.512 2.061-.975.562-.55 1.039-1.572 1.039-3.896V9.92l-4.171-4.201c-.687-.692-1.132-1.137-1.503-1.423C12.267 4.03 12.106 4 12 4c-.105 0-.267.029-.616.296Zm8.906 7.638a1 1 0 0 0 1.42-1.409l-6.22-6.262c-.626-.632-1.166-1.175-1.657-1.552C13.31 2.307 12.723 2 12 2c-.723 0-1.309.307-1.834.71-.49.378-1.03.921-1.658 1.553l-.046.047-6.172 6.215a1 1 0 0 0 1.42 1.41v2.702c0 2.54.512 4.221 1.64 5.325 1.07 1.048 2.544 1.396 3.877 1.711l.03.007c1.804.427 3.682.427 5.486 0l.03-.007c1.333-.315 2.808-.663 3.878-1.71 1.127-1.105 1.639-2.786 1.639-5.326v-2.703Zm-7.169 8.002c.028-.163.055-.38.08-.64.051-.53.09-1.195.113-1.872.024-.676.034-1.35.029-1.9a17.784 17.784 0 0 0-.018-.698 5.647 5.647 0 0 0-.023-.298l-.003-.023-.02-.103a1.274 1.274 0 0 0-.907-.996 1.391 1.391 0 0 0-.744 0 1.274 1.274 0 0 0-.907.996l-.02.103-.003.023-.007.07a5.093 5.093 0 0 0-.016.228 19.55 19.55 0 0 0-.018.699c-.005.548.005 1.223.029 1.899.024.677.062 1.342.113 1.872.025.26.052.477.08.64a9.923 9.923 0 0 0 2.242 0Z" clip-rule="evenodd"/>
</svg>
