<svg xmlns="http://www.w3.org/2000/svg" width="24" height="24" fill="none" viewBox="0 0 24 24">
  <path fill="#B5FF00" fill-rule="evenodd" d="M7.5 1.65a.85.85 0 0 0 0 1.7h7a6.15 6.15 0 0 1 6.15 6.15V17a.85.85 0 0 0 1.7 0V9.5a7.85 7.85 0 0 0-7.85-7.85h-7Zm0 5.55h5a4.3 4.3 0 0 1 4.3 4.3v5a4.3 4.3 0 0 1-4.3 4.3h-5a4.296 4.296 0 0 1-3.597-1.942l.999-1.022c.465-.288.52-.31.56-.32a.5.5 0 0 1 .2-.01c.04.006.097.022.589.262l.528.257.09.044c.374.183.75.367 1.159.42a2.5 2.5 0 0 0 1.06-.088c.394-.121.735-.365 1.073-.608l.082-.058 1.738-1.508c.546-.39.616-.421.661-.434.521-.197 1.225-.045 1.48.115a1 1 0 0 0 1.061-1.695c-.277-.174-.581-.35-.95-.432-.987-.219-1.7-.029-2.09.076l-.016.004c-.445.119-.83.395-1.215.671l-.093.067-1.739 1.508c-.479.342-.538.37-.579.382a.5.5 0 0 1-.212.018c-.042-.006-.105-.023-.635-.28l-.528-.258-.083-.04c-.349-.17-.7-.342-1.08-.4a2.502 2.502 0 0 0-1 .05c-.373.096-.705.302-1.034.507l-.079.049-.64.655a4.363 4.363 0 0 1-.01-.29v-5a4.3 4.3 0 0 1 4.3-4.3Zm-6 4.3a6 6 0 0 1 6-6h5a6 6 0 0 1 6 6v5a6 6 0 0 1-6 6h-5a6 6 0 0 1-6-6v-5Zm6 2a2 2 0 1 0 0-4 2 2 0 0 0 0 4Z" clip-rule="evenodd"/>
</svg>
