<svg xmlns="http://www.w3.org/2000/svg" width="24" height="24" fill="none" viewBox="0 0 24 24">
  <path fill="#B5FF00" fill-rule="evenodd" d="M18.293 15.293a1 1 0 0 1 1.414 0l2 2a1 1 0 0 1-1.414 1.414L20 18.414V22a1 1 0 1 1-2 0v-3.586l-.293.293a1 1 0 0 1-1.414-1.414l2-2Z" clip-rule="evenodd"/>
  <path fill="#B5FF00" d="M15.91 13.013c-.079-.018.077-.021 0 0 .52-.198 1.225-.046 1.48.114a1 1 0 0 0 1.06-1.695c-.276-.174-.58-.35-.95-.432-1-.222-1.718-.023-2.106.08-.445.119-.83.396-1.215.671l-.093.067-2.505 1.789c-.48.342-.539.37-.58.382a.5.5 0 0 1-.212.018c-.042-.006-.105-.023-.635-.28l-.528-.258-.083-.04c-.349-.17-.7-.342-1.08-.4a2.5 2.5 0 0 0-1 .05c-.373.096-.705.302-1.034.507l-.079.049-2.402 2.164A1 1 0 0 0 5 17.5l2.402-2.164c.465-.288.521-.31.56-.32a.5.5 0 0 1 .2-.01c.04.006.097.022.589.262l.528.257.09.044c.374.183.75.367 1.159.42a2.5 2.5 0 0 0 1.06-.088c.394-.121.735-.365 1.074-.608l.08-.058 2.506-1.79c.547-.39.616-.42.662-.432Z"/>
  <path fill="#B5FF00" fill-rule="evenodd" d="M2.1 11A8.9 8.9 0 0 1 11 2.1h2a8.9 8.9 0 0 1 8.9 8.9v.5a.9.9 0 1 1-1.8 0V11A7.1 7.1 0 0 0 13 3.9h-2A7.1 7.1 0 0 0 3.9 11v2a7.1 7.1 0 0 0 7.1 7.1h2.895a.9.9 0 1 1 0 1.8H11A8.9 8.9 0 0 1 2.1 13v-2Z" clip-rule="evenodd"/>
  <path fill="#B5FF00" d="M9.5 10a1.5 1.5 0 1 0 0-3 1.5 1.5 0 0 0 0 3Z"/>
</svg>
