<svg xmlns="http://www.w3.org/2000/svg" width="25" height="25" fill="none" viewBox="0 0 25 25">
  <path fill="#B5FF00" fill-rule="evenodd" d="M8.501 19.97a1.41 1.41 0 0 1 1.398-1.47h5.203c.758 0 1.43.634 1.397 1.472-.025.636-.13 1.551-.721 2.305-.627.797-1.64 1.223-3.07 1.223-1.572 0-2.684-.375-3.384-1.144-.689-.757-.798-1.708-.823-2.386Zm1.8.338c.046.364.144.625.319.816.222.245.749.568 2.089.568 1.088 0 1.504-.312 1.69-.548.162-.206.253-.484.3-.835H10.3ZM9.487 15.7a20.501 20.501 0 0 0-.452-.555c-.627-.753-1.378-1.655-2.372-3.64-.155-.31-.344-1.01-.362-1.972-.016-.932.132-1.96.508-2.897.37-.926.95-1.735 1.793-2.318.838-.58 2.055-1.018 3.84-1.018 1.803 0 3.05.424 3.915.991.866.568 1.457 1.35 1.833 2.239.796 1.883.54 4.016.051 4.938-1.204 2.273-2.13 3.278-2.829 4.035l-.18.197H9.486Zm-1.793.65c-.632-.756-1.543-1.848-2.64-4.04C3.8 9.808 4.068 1.5 12.443 1.5c8.374 0 8.91 7.94 7.389 10.81-1.316 2.484-2.377 3.634-3.09 4.407-.124.134-.237.256-.339.372a1.15 1.15 0 0 1-.853.411H9.16c-.4 0-.759-.243-.997-.565-.132-.18-.29-.368-.47-.584Z" clip-rule="evenodd"/>
  <path fill="#B5FF00" fill-rule="evenodd" d="M12.325 5.294a.85.85 0 0 1-.619 1.03c-.83.208-1.4.606-1.769 1.113-.373.514-.587 1.204-.587 2.063a.85.85 0 1 1-1.7 0c0-1.14.286-2.2.913-3.062.63-.868 1.561-1.47 2.73-1.763a.85.85 0 0 1 1.032.619Z" clip-rule="evenodd"/>
  <path fill="#B5FF00" d="M3.092 16.32c.104-.427.712-.427.816 0l.285 1.178a.42.42 0 0 0 .31.309l1.176.285c.428.104.428.712 0 .816l-1.177.285a.42.42 0 0 0-.309.31l-.285 1.176c-.104.428-.712.428-.816 0l-.285-1.177a.42.42 0 0 0-.31-.309l-1.176-.285c-.428-.104-.428-.712 0-.816l1.177-.285a.42.42 0 0 0 .309-.31l.285-1.176Z"/>
  <path fill="#B5FF00" fill-rule="evenodd" d="m3.5 16.776-.204.84a.923.923 0 0 1-.68.68l-.84.204.84.204a.923.923 0 0 1 .68.68l.204.84.204-.84a.923.923 0 0 1 .68-.68l.84-.204-.84-.204a.923.923 0 0 1-.68-.68l-.204-.84Zm.408-.455c-.104-.428-.712-.428-.816 0l-.285 1.177a.42.42 0 0 1-.31.309l-1.176.285c-.428.104-.428.712 0 .816l1.177.285a.42.42 0 0 1 .309.31l.285 1.176c.104.428.712.428.816 0l.285-1.177a.42.42 0 0 1 .31-.309l1.176-.285c.428-.104.428-.712 0-.816l-1.177-.285a.42.42 0 0 1-.309-.31l-.285-1.176Z" clip-rule="evenodd"/>
  <path fill="#B5FF00" d="M21.092 19.32c.104-.427.712-.427.816 0l.285 1.178a.42.42 0 0 0 .31.309l1.176.285c.428.104.428.712 0 .816l-1.177.285a.42.42 0 0 0-.309.31l-.285 1.176c-.104.428-.712.428-.816 0l-.285-1.177a.42.42 0 0 0-.31-.309l-1.176-.285c-.428-.104-.428-.712 0-.816l1.177-.285a.42.42 0 0 0 .309-.31l.285-1.176Z"/>
  <path fill="#B5FF00" fill-rule="evenodd" d="m21.5 19.776-.204.84a.923.923 0 0 1-.68.68l-.84.204.84.204a.923.923 0 0 1 .68.68l.204.84.204-.84a.923.923 0 0 1 .68-.68l.84-.204-.84-.204a.923.923 0 0 1-.68-.68l-.204-.84Zm.408-.455c-.104-.428-.712-.428-.816 0l-.285 1.177a.42.42 0 0 1-.31.309l-1.176.285c-.428.104-.428.712 0 .816l1.177.285a.42.42 0 0 1 .309.31l.285 1.176c.104.428.712.428.816 0l.285-1.177a.42.42 0 0 1 .31-.309l1.176-.285c.428-.104.428-.712 0-.816l-1.177-.285a.42.42 0 0 1-.309-.31l-.285-1.176Z" clip-rule="evenodd"/>
  <circle cx="3" cy="3" r="1" fill="#B5FF00"/>
  <circle cx="23" cy="9" r="1" fill="#B5FF00"/>
  <circle cx="21" cy="2" r="1" fill="#B5FF00"/>
</svg>
