<svg xmlns="http://www.w3.org/2000/svg" width="24" height="24" fill="none" viewBox="0 0 24 24">
  <path fill="#B5FF00" fill-rule="evenodd" d="M11.061 8.362a.919.919 0 0 0 .55.814c.126.056.26.079.389.074a.891.891 0 0 0 .39-.074.919.919 0 0 0 .549-.814c.218-.515.495-1.112.987-1.637.564-.601 1.459-1.15 3.025-1.15 1.367 0 2.57 1.083 3.043 2.777.463 1.66.142 3.72-1.419 5.303-2.514 2.55-5.216 4.34-6.575 5.105-1.36-.766-4.06-2.555-6.575-5.105-1.56-1.583-1.882-3.643-1.418-5.303.472-1.694 1.675-2.777 3.042-2.777 1.566 0 2.46.549 3.025 1.15.492.525.77 1.122.987 1.637ZM12 6.24a5.867 5.867 0 0 0-.613-.78c-.909-.969-2.279-1.722-4.338-1.722-2.427 0-4.169 1.903-4.786 4.115a7.294 7.294 0 0 0 1.88 7.102c2.785 2.824 5.786 4.77 7.214 5.544a.902.902 0 0 0 .643.238.902.902 0 0 0 .643-.238c1.428-.773 4.43-2.72 7.214-5.544a7.294 7.294 0 0 0 1.88-7.102c-.617-2.212-2.359-4.115-4.786-4.115-2.059 0-3.43.753-4.338 1.721a6.01 6.01 0 0 0-.613.78Z" clip-rule="evenodd"/>
  <path fill="#B5FF00" fill-rule="evenodd" d="M10.962 8.385c-.216-.51-.487-1.086-.961-1.591-.545-.582-1.414-1.12-2.952-1.12-1.308 0-2.481 1.04-2.946 2.705-.455 1.629-.14 3.65 1.393 5.206 2.477 2.511 5.136 4.283 6.504 5.06 1.368-.777 4.027-2.549 6.504-5.06 1.533-1.555 1.848-3.577 1.393-5.206-.465-1.666-1.638-2.704-2.946-2.704-1.538 0-2.407.537-2.952 1.119-.474.505-.745 1.081-.961 1.59-.02.375-.244.725-.608.884a.992.992 0 0 1-.43.082.992.992 0 0 1-.43-.082 1.019 1.019 0 0 1-.608-.883ZM12 9.25a.891.891 0 0 1-.39-.074.919.919 0 0 1-.549-.814c-.218-.515-.495-1.112-.987-1.637-.564-.601-1.459-1.15-3.025-1.15-1.367 0-2.57 1.083-3.042 2.777-.464 1.66-.143 3.72 1.418 5.303 2.514 2.55 5.216 4.34 6.575 5.105 1.36-.766 4.06-2.555 6.575-5.105 1.56-1.583 1.882-3.643 1.419-5.303-.473-1.694-1.676-2.777-3.043-2.777-1.566 0-2.46.549-3.025 1.15-.492.525-.77 1.122-.987 1.637a.919.919 0 0 1-.55.814.891.891 0 0 1-.389.074Zm-.06-3.101a5.797 5.797 0 0 0-.553-.69c-.909-.969-2.279-1.722-4.338-1.722-2.427 0-4.169 1.903-4.786 4.115a7.294 7.294 0 0 0 1.88 7.102c2.785 2.824 5.786 4.77 7.214 5.544a.902.902 0 0 0 .643.238.902.902 0 0 0 .643-.238c1.428-.773 4.43-2.72 7.214-5.544a7.294 7.294 0 0 0 1.88-7.102c-.617-2.212-2.359-4.115-4.786-4.115-2.059 0-3.43.753-4.338 1.721a5.817 5.817 0 0 0-.613.78l-.06-.089Zm.06-.088a5.88 5.88 0 0 0-.54-.671c-.927-.989-2.324-1.753-4.41-1.753-2.488 0-4.259 1.95-4.883 4.188a7.393 7.393 0 0 0 1.905 7.2c2.785 2.824 5.787 4.774 7.227 5.555.192.173.444.265.701.257.257.008.509-.084.701-.257 1.44-.78 4.442-2.73 7.227-5.555a7.393 7.393 0 0 0 1.905-7.2c-.624-2.239-2.395-4.188-4.882-4.188-2.087 0-3.484.764-4.41 1.753a5.88 5.88 0 0 0-.541.67Z" clip-rule="evenodd"/>
</svg>
