<svg xmlns="http://www.w3.org/2000/svg" width="24" height="24" fill="none" viewBox="0 0 24 24">
  <path fill="#B5FF00" fill-rule="evenodd" d="M12 6.239a5.867 5.867 0 0 0-.613-.78c-.909-.969-2.279-1.722-4.338-1.722-2.427 0-4.169 1.903-4.786 4.115a7.294 7.294 0 0 0 1.88 7.102c2.785 2.824 5.786 4.77 7.214 5.544a.902.902 0 0 0 .643.238.902.902 0 0 0 .643-.238c1.428-.773 4.43-2.72 7.214-5.544a7.294 7.294 0 0 0 1.88-7.102c-.617-2.212-2.359-4.115-4.786-4.115-2.059 0-3.43.753-4.338 1.721a6.01 6.01 0 0 0-.613.78Z" clip-rule="evenodd"/>
  <path fill="#B5FF00" fill-rule="evenodd" d="M11.94 6.15a5.796 5.796 0 0 0-.553-.692c-.909-.968-2.279-1.72-4.338-1.72-2.427 0-4.169 1.902-4.786 4.114a7.294 7.294 0 0 0 1.88 7.102c2.785 2.824 5.786 4.77 7.214 5.544a.902.902 0 0 0 .643.238.902.902 0 0 0 .643-.238c1.428-.773 4.43-2.72 7.214-5.544a7.294 7.294 0 0 0 1.88-7.102c-.617-2.212-2.359-4.115-4.786-4.115-2.059 0-3.43.753-4.338 1.721a5.817 5.817 0 0 0-.613.78l-.06-.089Zm.06-.09a5.88 5.88 0 0 0-.54-.67c-.927-.989-2.324-1.753-4.41-1.753-2.488 0-4.259 1.95-4.883 4.188a7.393 7.393 0 0 0 1.905 7.2c2.785 2.824 5.787 4.774 7.227 5.555.192.173.444.265.701.257.257.008.509-.084.701-.257 1.44-.78 4.442-2.73 7.227-5.555a7.393 7.393 0 0 0 1.905-7.2c-.624-2.239-2.395-4.188-4.882-4.188-2.087 0-3.484.764-4.41 1.753a5.88 5.88 0 0 0-.541.67Z" clip-rule="evenodd"/>
</svg>
