<svg xmlns="http://www.w3.org/2000/svg" width="24" height="24" fill="none" viewBox="0 0 24 24">
  <path fill="#B5FF00" fill-rule="evenodd" d="M8.6 10.5a3.4 3.4 0 1 1 6.8 0 3.4 3.4 0 0 1-6.8 0ZM12 8.9a1.6 1.6 0 1 0 0 3.2 1.6 1.6 0 0 0 0-3.2Z" clip-rule="evenodd"/>
  <path fill="#B5FF00" fill-rule="evenodd" d="M12 3.9c-3.639 0-6.6 2.976-6.6 6.663 0 2.339 1.401 4.739 3.073 6.622a16.18 16.18 0 0 0 2.384 2.211c.355.262.66.454.893.577.126.065.207.098.25.113a2.21 2.21 0 0 0 .25-.113 7.1 7.1 0 0 0 .892-.577 16.167 16.167 0 0 0 2.384-2.211c1.673-1.883 3.074-4.283 3.074-6.622C18.6 6.877 15.638 3.9 12 3.9Zm-8.4 6.663C3.6 5.897 7.353 2.1 12 2.1c4.646 0 8.4 3.797 8.4 8.463 0 2.997-1.75 5.815-3.528 7.817a17.965 17.965 0 0 1-2.66 2.463c-.405.3-.79.547-1.13.725-.296.155-.696.332-1.083.332-.386 0-.786-.177-1.083-.332a8.872 8.872 0 0 1-1.13-.725 17.964 17.964 0 0 1-2.659-2.463C5.35 16.378 3.6 13.56 3.6 10.563Z" clip-rule="evenodd"/>
</svg>
