<svg xmlns="http://www.w3.org/2000/svg" width="24" height="24" fill="none" viewBox="0 0 24 24">
  <path fill="#B5FF00" d="M19.464 10.313H7.93v-3.04c0-2.277 1.78-4.168 4.029-4.21 2.247 0 4.113 1.847 4.113 4.124v.032c0 .601.424 1.031 1.018 1.031.552 0 1.018-.43 1.018-1.031v.054c0-3.437-2.714-6.23-6.107-6.273-3.393 0-6.107 2.793-6.107 6.188v3.125H4.536c-1.145 0-2.036.945-2.036 2.062v8.563c0 1.16.89 2.062 2.036 2.062h14.928a2.05 2.05 0 0 0 2.036-2.063v-8.562c0-1.117-.933-2.063-2.036-2.063Zm0 10.624H4.536v-8.562h14.928v8.563ZM12 18.563c.636 0 1.188-.515 1.188-1.203v-1.406c0-.644-.552-1.203-1.188-1.203-.679 0-1.188.559-1.188 1.203v1.406c0 .688.51 1.203 1.188 1.203Z"/>
</svg>
