<svg xmlns="http://www.w3.org/2000/svg" width="24" height="24" fill="none" viewBox="0 0 24 24">
  <path fill="#B5FF00" fill-rule="evenodd" d="M14.575 4.828a3.85 3.85 0 0 0-5.444 0l-3.652 3.65.005.006c-.793.859-1.292 1.752-1.4 2.715-.119 1.076.269 2.07.936 2.998a.39.39 0 0 1 .062.305.294.294 0 0 1-.146.21c-.967.511-2.115 1.261-2.715 2.264-.317.528-.499 1.155-.389 1.847.108.682.483 1.32 1.077 1.914.603.603 1.252.98 1.94 1.102.695.124 1.338-.027 1.893-.313 1.065-.547 1.898-1.636 2.472-2.557a.304.304 0 0 1 .217-.133c.114-.02.24.004.34.069.843.548 1.778.834 2.794.666.9-.148 1.76-.636 2.597-1.41l.005.005 3.651-3.651a3.85 3.85 0 0 0 0-5.445l-4.243-4.242Zm-.616 12.13-7.271-7.27c-.61.673-.861 1.228-.914 1.7-.057.517.108 1.095.626 1.815.691.96.457 2.418-.67 3.013-.927.489-1.706 1.058-2.051 1.634-.157.261-.203.488-.168.706.036.229.178.557.6.979.425.424.774.584 1.037.63.258.047.523.001.816-.15.634-.326 1.265-1.075 1.807-1.945.65-1.044 2.017-1.181 2.926-.591.58.378 1.092.497 1.592.415.46-.076 1.012-.34 1.67-.936ZM10.333 6.03a2.15 2.15 0 0 1 3.04 0l4.243 4.242c.84.84.84 2.201 0 3.04l-2.45 2.45L7.885 8.48l2.449-2.45Z" clip-rule="evenodd"/>
  <path fill="#B5FF00" d="M19.51 1.385c.125-.513.855-.513.98 0l.342 1.412a.504.504 0 0 0 .37.371l1.413.343c.513.124.513.854 0 .978l-1.412.343a.504.504 0 0 0-.371.37l-.343 1.413c-.124.513-.854.513-.979 0l-.342-1.412a.504.504 0 0 0-.37-.371l-1.413-.343c-.513-.124-.513-.854 0-.978l1.412-.343a.504.504 0 0 0 .371-.37l.343-1.413Z"/>
  <path fill="#B5FF00" fill-rule="evenodd" d="m20 1.931-.245 1.009a1.108 1.108 0 0 1-.815.815L17.93 4l1.009.245c.403.097.718.412.815.815L20 6.07l.245-1.009c.097-.403.412-.718.815-.815L22.07 4l-1.009-.245a1.108 1.108 0 0 1-.815-.815L20 1.93Zm.49-.546c-.125-.513-.855-.513-.98 0l-.342 1.412a.504.504 0 0 1-.37.371l-1.413.343c-.513.124-.513.854 0 .978l1.412.343a.504.504 0 0 1 .371.37l.343 1.413c.124.513.854.513.979 0l.342-1.412a.504.504 0 0 1 .37-.371l1.413-.343c.513-.124.513-.854 0-.978l-1.412-.343a.504.504 0 0 1-.371-.37l-.343-1.413Z" clip-rule="evenodd"/>
  <path fill="#B5FF00" d="M3 5a1 1 0 1 1-2 0 1 1 0 0 1 2 0Zm4-3a1 1 0 1 1-2 0 1 1 0 0 1 2 0Zm13.092 16.32c.104-.427.712-.427.816 0l.285 1.178a.42.42 0 0 0 .31.309l1.176.285c.428.104.428.712 0 .816l-1.177.285a.42.42 0 0 0-.309.31l-.285 1.176c-.104.428-.712.428-.816 0l-.285-1.177a.42.42 0 0 0-.31-.309l-1.176-.285c-.428-.104-.428-.712 0-.816l1.177-.285a.42.42 0 0 0 .309-.31l.285-1.176Z"/>
  <path fill="#B5FF00" fill-rule="evenodd" d="m20.5 18.776-.204.84a.923.923 0 0 1-.68.68l-.84.204.84.204a.923.923 0 0 1 .68.68l.204.84.204-.84a.923.923 0 0 1 .68-.68l.84-.204-.84-.204a.923.923 0 0 1-.68-.68l-.204-.84Zm.408-.455c-.104-.428-.712-.428-.816 0l-.285 1.177a.42.42 0 0 1-.31.309l-1.176.285c-.428.104-.428.712 0 .816l1.177.285a.42.42 0 0 1 .309.31l.285 1.176c.104.428.712.428.816 0l.285-1.177a.42.42 0 0 1 .31-.309l1.176-.285c.428-.104.428-.712 0-.816l-1.177-.285a.42.42 0 0 1-.309-.31l-.285-1.176Z" clip-rule="evenodd"/>
</svg>
