<svg xmlns="http://www.w3.org/2000/svg" width="24" height="24" fill="none" viewBox="0 0 24 24">
  <path fill="#B5FF00" fill-rule="evenodd" d="M8.85 3A3.85 3.85 0 0 0 5 6.85v4.85h.042c.1.965.388 1.788.924 2.44.693.843 1.692 1.266 2.843 1.446a.381.381 0 0 1 .256.17c.059.09.068.18.044.255-.329 1.044-.615 2.389-.322 3.526.154.6.478 1.17 1.054 1.578.565.4 1.29.585 2.14.585.865 0 1.598-.19 2.18-.586.587-.4.944-.96 1.14-1.557.376-1.143.192-2.504-.059-3.562a.306.306 0 0 1 .059-.25.466.466 0 0 1 .284-.187c1.003-.204 1.887-.657 2.504-1.493.47-.637.736-1.43.832-2.365h.042V6.85A3.85 3.85 0 0 0 15.113 3H8.85Zm8.36 8.7H6.754c.089.632.28 1.061.525 1.36.337.41.883.705 1.792.847 1.182.185 2.044 1.396 1.66 2.615-.315 1-.464 1.947-.298 2.59.075.291.204.484.39.616.197.139.543.272 1.158.272.62 0 .994-.135 1.223-.291.223-.152.38-.373.482-.683.221-.673.139-1.641-.098-2.64-.283-1.197.582-2.275 1.657-2.493.708-.145 1.172-.425 1.476-.838.225-.304.404-.736.489-1.355ZM6.7 6.85A2.15 2.15 0 0 1 8.85 4.7h6.263a2.15 2.15 0 0 1 2.15 2.15V10H6.7V6.85Z" clip-rule="evenodd"/>
  <path fill="#B5FF00" d="M20.092 17.32c.104-.427.712-.427.816 0l.285 1.178a.42.42 0 0 0 .31.309l1.176.285c.428.104.428.712 0 .816l-1.177.285a.42.42 0 0 0-.309.31l-.285 1.176c-.104.428-.712.428-.816 0l-.285-1.177a.42.42 0 0 0-.31-.309l-1.176-.285c-.428-.104-.428-.712 0-.816l1.177-.285a.42.42 0 0 0 .309-.31l.285-1.176Z"/>
  <path fill="#B5FF00" fill-rule="evenodd" d="m20.5 17.776-.204.84a.923.923 0 0 1-.68.68l-.84.204.84.204a.923.923 0 0 1 .68.68l.204.84.204-.84a.923.923 0 0 1 .68-.68l.84-.204-.84-.204a.923.923 0 0 1-.68-.68l-.204-.84Zm.408-.455c-.104-.428-.712-.428-.816 0l-.285 1.177a.42.42 0 0 1-.31.309l-1.176.285c-.428.104-.428.712 0 .816l1.177.285a.42.42 0 0 1 .309.31l.285 1.176c.104.428.712.428.816 0l.285-1.177a.42.42 0 0 1 .31-.309l1.176-.285c.428-.104.428-.712 0-.816l-1.177-.285a.42.42 0 0 1-.309-.31l-.285-1.176Z" clip-rule="evenodd"/>
  <path fill="#B5FF00" d="M2.674 16.257c.083-.343.57-.343.652 0l.229.941c.03.122.125.218.247.247l.941.229c.343.083.343.57 0 .652l-.941.229a.336.336 0 0 0-.247.247l-.229.941c-.083.343-.57.343-.652 0l-.229-.941a.336.336 0 0 0-.247-.247l-.941-.229c-.343-.083-.343-.57 0-.652l.941-.229a.336.336 0 0 0 .247-.247l.229-.941Z"/>
  <path fill="#B5FF00" fill-rule="evenodd" d="m3 16.62-.163.673a.739.739 0 0 1-.544.544L1.621 18l.672.163a.739.739 0 0 1 .544.544l.163.672.163-.672a.739.739 0 0 1 .544-.544L4.379 18l-.672-.163a.739.739 0 0 1-.544-.544L3 16.621Zm.326-.363c-.083-.343-.57-.343-.652 0l-.229.941a.336.336 0 0 1-.247.247l-.941.229c-.343.083-.343.57 0 .652l.941.229c.122.03.218.125.247.247l.229.941c.083.343.57.343.652 0l.229-.941a.336.336 0 0 1 .247-.247l.941-.229c.343-.083.343-.57 0-.652l-.941-.229a.336.336 0 0 1-.247-.247l-.229-.941Z" clip-rule="evenodd"/>
  <path fill="#B5FF00" d="M2.674 16.257c.083-.343.57-.343.652 0l.229.941c.03.122.125.218.247.247l.941.229c.343.083.343.57 0 .652l-.941.229a.336.336 0 0 0-.247.247l-.229.941c-.083.343-.57.343-.652 0l-.229-.941a.336.336 0 0 0-.247-.247l-.941-.229c-.343-.083-.343-.57 0-.652l.941-.229a.336.336 0 0 0 .247-.247l.229-.941Z"/>
  <path fill="#B5FF00" fill-rule="evenodd" d="m3 16.62-.163.673a.739.739 0 0 1-.544.544L1.621 18l.672.163a.739.739 0 0 1 .544.544l.163.672.163-.672a.739.739 0 0 1 .544-.544L4.379 18l-.672-.163a.739.739 0 0 1-.544-.544L3 16.621Zm.326-.363c-.083-.343-.57-.343-.652 0l-.229.941a.336.336 0 0 1-.247.247l-.941.229c-.343.083-.343.57 0 .652l.941.229c.122.03.218.125.247.247l.229.941c.083.343.57.343.652 0l.229-.941a.336.336 0 0 1 .247-.247l.941-.229c.343-.083.343-.57 0-.652l-.941-.229a.336.336 0 0 1-.247-.247l-.229-.941Z" clip-rule="evenodd"/>
  <path fill="#B5FF00" d="M4 2a1 1 0 1 1-2 0 1 1 0 0 1 2 0Zm19 5a1 1 0 1 1-2 0 1 1 0 0 1 2 0Zm-2-5a1 1 0 1 1-2 0 1 1 0 0 1 2 0Z"/>
</svg>
