<svg xmlns="http://www.w3.org/2000/svg" width="24" height="24" fill="none" viewBox="0 0 24 24">
  <path fill="#B5FF00" d="m3.68 19.681 1.61 1.609a2.77 2.77 0 0 0 1.904.804A2.77 2.77 0 0 0 9.1 21.29l9.976-9.976.508-4.826a.969.969 0 0 0-.973-1.101h-.127l-4.826.508L3.68 15.87a2.683 2.683 0 0 0 0 3.81ZM14.589 7.842l2.836-.296-.296 2.836-4.812 4.854-1.312 1.312-2.582-2.582 1.312-1.312 4.854-4.812ZM5.12 17.31l1.863-1.905 2.582 2.583L7.66 19.85a.722.722 0 0 1-.466.212.722.722 0 0 1-.465-.212L5.12 18.242a.664.664 0 0 1 0-.932ZM4.347 1.513c.166-.684 1.14-.684 1.306 0l.456 1.883c.06.245.25.436.495.495l1.883.456c.684.166.684 1.14 0 1.306l-1.883.456a.672.672 0 0 0-.495.495l-.456 1.883c-.166.684-1.14.684-1.306 0l-.456-1.883a.672.672 0 0 0-.495-.495l-1.883-.456c-.684-.166-.684-1.14 0-1.306l1.883-.456a.672.672 0 0 0 .495-.495l.456-1.883Z"/>
  <path fill="#B5FF00" fill-rule="evenodd" d="m5 2.241-.326 1.345c-.13.538-.55.958-1.088 1.088L2.241 5l1.345.326c.538.13.958.55 1.088 1.088L5 7.759l.326-1.345c.13-.538.55-.958 1.088-1.088L7.759 5l-1.345-.326a1.477 1.477 0 0 1-1.088-1.088L5 2.241Zm.653-.728c-.166-.684-1.14-.684-1.306 0l-.456 1.883a.672.672 0 0 1-.495.495l-1.883.456c-.684.166-.684 1.14 0 1.306l1.883.456c.245.06.436.25.495.495l.456 1.883c.166.684 1.14.684 1.306 0l.456-1.883a.672.672 0 0 1 .495-.495l1.883-.456c.684-.166.684-1.14 0-1.306l-1.883-.456a.672.672 0 0 1-.495-.495l-.456-1.883Z" clip-rule="evenodd"/>
  <path fill="#B5FF00" d="M19.51 17.385c.125-.513.855-.513.98 0l.342 1.412a.504.504 0 0 0 .37.371l1.413.343c.513.124.513.854 0 .979l-1.412.342a.504.504 0 0 0-.371.37l-.343 1.413c-.124.513-.854.513-.979 0l-.342-1.412a.504.504 0 0 0-.37-.371l-1.413-.343c-.513-.124-.513-.854 0-.979l1.412-.342a.504.504 0 0 0 .371-.37l.343-1.413Z"/>
  <path fill="#B5FF00" fill-rule="evenodd" d="m20 17.931-.245 1.009a1.108 1.108 0 0 1-.815.815L17.93 20l1.009.245c.403.097.718.412.815.815L20 22.07l.245-1.009c.097-.403.412-.718.815-.815L22.07 20l-1.009-.245a1.108 1.108 0 0 1-.815-.815L20 17.93Zm.49-.546c-.125-.513-.855-.513-.98 0l-.342 1.412a.504.504 0 0 1-.37.371l-1.413.343c-.513.124-.513.854 0 .979l1.412.342a.504.504 0 0 1 .371.37l.343 1.413c.124.513.854.513.979 0l.342-1.412a.504.504 0 0 1 .37-.371l1.413-.343c.513-.124.513-.854 0-.979l-1.412-.342a.504.504 0 0 1-.371-.37l-.343-1.413Z" clip-rule="evenodd"/>
  <path fill="#B5FF00" d="M23 2a1 1 0 1 1-2 0 1 1 0 0 1 2 0ZM13 2a1 1 0 1 1-2 0 1 1 0 0 1 2 0ZM4 12a1 1 0 1 1-2 0 1 1 0 0 1 2 0Z"/>
</svg>
