<svg xmlns="http://www.w3.org/2000/svg" width="24" height="24" fill="none" viewBox="0 0 24 24">
  <path fill="#B5FF00" fill-rule="evenodd" d="M5.888 18.413a3 3 0 0 1-.48-4.215l7.435-9.353a3 3 0 0 1 4.215-.481l3.33 2.648a3 3 0 0 1 .482 4.215l-7.436 9.353a3 3 0 0 1-4.215.481l-3.33-2.648Zm5.745-9.636 2.384-2.998a1.5 1.5 0 0 1 2.108-.241l3.33 2.648a1.5 1.5 0 0 1 .241 2.108l-2.384 2.998-5.679-4.515ZM10.7 9.95l-4.12 5.18a1.5 1.5 0 0 0 .24 2.108l3.332 2.648a1.5 1.5 0 0 0 2.107-.24l4.119-5.181-5.68-4.515Z" clip-rule="evenodd"/>
  <path fill="#B5FF00" d="M3.51 3.385c.125-.513.855-.513.98 0l.342 1.412a.504.504 0 0 0 .37.371l1.413.343c.513.124.513.854 0 .978l-1.412.343a.504.504 0 0 0-.371.37l-.343 1.413c-.124.513-.854.513-.978 0l-.343-1.412a.504.504 0 0 0-.37-.371l-1.413-.343c-.513-.124-.513-.854 0-.978l1.412-.343a.504.504 0 0 0 .371-.37l.343-1.413Z"/>
  <path fill="#B5FF00" fill-rule="evenodd" d="M4 3.931 3.755 4.94a1.108 1.108 0 0 1-.815.815L1.93 6l1.009.245c.403.097.718.412.815.815L4 8.07l.245-1.009c.097-.403.412-.718.815-.815L6.07 6l-1.01-.245a1.108 1.108 0 0 1-.815-.815L4 3.93Zm.49-.546c-.125-.513-.855-.513-.98 0l-.342 1.412a.504.504 0 0 1-.37.371l-1.413.343c-.513.124-.513.854 0 .978l1.412.343a.504.504 0 0 1 .371.37l.343 1.413c.124.513.854.513.978 0l.343-1.412a.504.504 0 0 1 .37-.371l1.413-.343c.513-.124.513-.854 0-.978l-1.412-.343a.504.504 0 0 1-.371-.37l-.343-1.413ZM10.1 21a.9.9 0 0 1 .9-.9h11a.9.9 0 1 1 0 1.8H11a.9.9 0 0 1-.9-.9Z" clip-rule="evenodd"/>
  <path fill="#B5FF00" d="M11 2a1 1 0 1 1-2 0 1 1 0 0 1 2 0ZM4 21a1 1 0 1 1-2 0 1 1 0 0 1 2 0ZM23 2a1 1 0 1 1-2 0 1 1 0 0 1 2 0Z"/>
  <path fill="#B5FF00" fill-rule="evenodd" d="m11.633 8.777 2.384-2.998a1.5 1.5 0 0 1 2.108-.241l3.33 2.648a1.5 1.5 0 0 1 .241 2.108l-2.384 2.998-5.679-4.515Zm.281-.032 5.366 4.266 2.26-2.842a1.3 1.3 0 0 0-.21-1.826L16 5.695a1.3 1.3 0 0 0-1.827.208l-2.259 2.842Zm-1.182 1.487-3.994 5.024a1.3 1.3 0 0 0 .208 1.826l3.331 2.648a1.3 1.3 0 0 0 1.827-.208l3.994-5.024-5.366-4.266Zm-4.15 4.9a1.5 1.5 0 0 0 .24 2.107l3.33 2.648a1.5 1.5 0 0 0 2.108-.24l4.119-5.181-5.68-4.515-4.118 5.18Zm-.818 3.438a3.2 3.2 0 0 1-.513-4.497l7.435-9.352a3.2 3.2 0 0 1 4.496-.514l3.331 2.648a3.2 3.2 0 0 1 .514 4.497l-7.436 9.352a3.2 3.2 0 0 1-4.496.514L5.764 18.57Zm-.357-4.372a3 3 0 0 0 .481 4.215l3.331 2.648a3 3 0 0 0 4.216-.481l7.435-9.353a3 3 0 0 0-.481-4.215l-3.331-2.648a3 3 0 0 0-4.215.481l-7.436 9.353Z" clip-rule="evenodd"/>
  <path fill="#B5FF00" fill-rule="evenodd" d="M10.1 21a.9.9 0 0 1 .9-.9h11a.9.9 0 1 1 0 1.8H11a.9.9 0 0 1-.9-.9Z" clip-rule="evenodd"/>
</svg>
