<svg xmlns="http://www.w3.org/2000/svg" width="24" height="24" fill="none" viewBox="0 0 24 24">
  <path fill="#B5FF00" d="M6.738 21.367h2.23c.705 0 1.409-.293 1.878-.762.47-.47.763-1.174.763-1.878V6.844L8.616 3.147a.95.95 0 0 0-1.437-.088c-.03.03-.06.058-.088.088L4.098 6.844v11.883a2.63 2.63 0 0 0 2.64 2.64Zm-.645-13.82 1.76-2.17 1.76 2.17.03 4.754v1.82h-3.58V12.3l.03-4.753Zm0 11.18-.03-2.612h3.58l-.03 2.612c0 .234-.117.41-.175.47a.708.708 0 0 1-.47.175h-2.23a.651.651 0 0 1-.645-.645ZM17.347 3.513c.166-.684 1.14-.684 1.306 0l.456 1.883c.06.245.25.435.495.495l1.883.456c.684.166.684 1.14 0 1.306l-1.883.456a.672.672 0 0 0-.495.495l-.456 1.883c-.166.684-1.14.684-1.306 0l-.456-1.883a.672.672 0 0 0-.495-.495l-1.883-.456c-.684-.166-.684-1.14 0-1.306l1.883-.456a.672.672 0 0 0 .495-.495l.456-1.883Z"/>
  <path fill="#B5FF00" fill-rule="evenodd" d="m18 4.241-.326 1.345c-.13.538-.55.958-1.088 1.088L15.242 7l1.344.326c.538.13.958.55 1.088 1.088L18 9.759l.326-1.345c.13-.538.55-.958 1.088-1.088L20.759 7l-1.345-.326a1.477 1.477 0 0 1-1.088-1.088L18 4.241Zm.653-.728c-.166-.684-1.14-.684-1.306 0l-.456 1.883a.672.672 0 0 1-.495.495l-1.883.456c-.684.166-.684 1.14 0 1.306l1.883.456c.245.06.435.25.495.495l.456 1.883c.166.684 1.14.684 1.306 0l.456-1.883a.672.672 0 0 1 .495-.495l1.883-.456c.684-.166.684-1.14 0-1.306l-1.883-.456a.672.672 0 0 1-.495-.495l-.456-1.883Z" clip-rule="evenodd"/>
  <path fill="#B5FF00" d="M17 16a1 1 0 1 1-2 0 1 1 0 0 1 2 0Zm3 4a1 1 0 1 1-2 0 1 1 0 0 1 2 0Zm2-6a1 1 0 1 1-2 0 1 1 0 0 1 2 0Z"/>
</svg>
