<svg xmlns="http://www.w3.org/2000/svg" width="24" height="24" fill="none" viewBox="0 0 24 24">
  <path fill="#B5FF00" fill-rule="evenodd" d="M17.32 5.054a1.667 1.667 0 0 1 1.827 1.796l-.513 6.249a5.001 5.001 0 0 1-3.569 4.387l-2.873.848-1.72 1.75a2.5 2.5 0 0 1-3.536.03l-2.666-2.62a2.5 2.5 0 0 1-.03-3.537l1.719-1.75.798-2.887a5.001 5.001 0 0 1 4.324-3.644l6.24-.622ZM6.716 13.816l3.855 3.79-1.286 1.309a.834.834 0 0 1-1.18.01l-2.666-2.62a.834.834 0 0 1-.01-1.18l1.287-1.309Zm9.471-6.973-3.24 3.296a1.667 1.667 0 1 0 1.189 1.168l3.245-3.3-.408 4.955a3.334 3.334 0 0 1-2.379 2.925l-2.61.77-4.344-4.27.724-2.623a3.334 3.334 0 0 1 2.883-2.43l4.94-.491Z" clip-rule="evenodd"/>
  <path fill="#B5FF00" d="M19.674 17.257c.083-.343.57-.343.652 0l.229.941c.03.122.125.218.247.247l.941.229c.343.083.343.57 0 .652l-.941.229a.336.336 0 0 0-.247.247l-.229.941c-.083.343-.57.343-.652 0l-.229-.941a.336.336 0 0 0-.247-.247l-.941-.229c-.343-.083-.343-.57 0-.652l.941-.229a.336.336 0 0 0 .247-.247l.229-.941Z"/>
  <path fill="#B5FF00" fill-rule="evenodd" d="m20 17.62-.163.673a.738.738 0 0 1-.544.544l-.672.163.672.163a.738.738 0 0 1 .544.544l.163.672.163-.672a.738.738 0 0 1 .544-.544l.672-.163-.672-.163a.738.738 0 0 1-.544-.544L20 17.621Zm.326-.363c-.083-.343-.57-.343-.652 0l-.229.941a.336.336 0 0 1-.247.247l-.941.229c-.343.083-.343.57 0 .652l.941.229c.122.03.218.125.247.247l.229.941c.083.343.57.343.652 0l.229-.941a.336.336 0 0 1 .247-.247l.941-.229c.343-.083.343-.57 0-.652l-.941-.229a.336.336 0 0 1-.247-.247l-.229-.941Z" clip-rule="evenodd"/>
  <path fill="#B5FF00" d="M16 21a1 1 0 1 1-2 0 1 1 0 0 1 2 0Zm6-18a1 1 0 1 1-2 0 1 1 0 0 1 2 0ZM9 3a1 1 0 1 1-2 0 1 1 0 0 1 2 0ZM3.674 5.257c.083-.343.57-.343.652 0l.229.941c.03.122.125.218.247.247l.941.229c.343.083.343.57 0 .652l-.941.229a.336.336 0 0 0-.247.247l-.229.941c-.083.343-.57.343-.652 0l-.229-.941a.336.336 0 0 0-.247-.247l-.941-.229c-.343-.083-.343-.57 0-.652l.941-.229a.336.336 0 0 0 .247-.247l.229-.941Z"/>
  <path fill="#B5FF00" fill-rule="evenodd" d="m4 5.62-.163.673a.739.739 0 0 1-.544.544L2.621 7l.672.163a.739.739 0 0 1 .544.544L4 8.379l.163-.672a.739.739 0 0 1 .544-.544L5.379 7l-.672-.163a.739.739 0 0 1-.544-.544L4 5.621Zm.326-.363c-.083-.343-.57-.343-.652 0l-.229.941a.336.336 0 0 1-.247.247l-.941.229c-.343.083-.343.57 0 .652l.941.229c.122.03.218.125.247.247l.229.941c.083.343.57.343.652 0l.229-.941a.336.336 0 0 1 .247-.247l.941-.229c.343-.083.343-.57 0-.652l-.941-.229a.336.336 0 0 1-.247-.247l-.229-.941Z" clip-rule="evenodd"/>
</svg>
