<svg xmlns="http://www.w3.org/2000/svg" width="24" height="24" fill="none" viewBox="0 0 24 24">
  <path fill="#B5FF00" fill-rule="evenodd" d="M2.293 2.293a1 1 0 0 1 1.414 0l18 18a1 1 0 0 1-1.414 1.414L17.186 18.6c-1.38.83-3.094 1.4-5.186 1.4-6.108 0-8.86-4.787-9.73-6.74a3.087 3.087 0 0 1 0-2.52c.446-1.002 1.356-2.69 2.928-4.128L2.293 3.707a1 1 0 0 1 0-1.414Zm11.739 13.153 1.685 1.685C14.703 17.656 13.478 18 12 18c-4.855 0-7.11-3.773-7.903-5.553a1.087 1.087 0 0 1 0-.893c.396-.89 1.189-2.335 2.517-3.526l1.94 1.94a4 4 0 0 0 5.478 5.478ZM10 12c0-.18.024-.353.068-.518l2.45 2.45A2.002 2.002 0 0 1 10 12Zm-.5-7c0-1 2-1 2.5-1 6.11 0 8.862 4.788 9.731 6.74a3.087 3.087 0 0 1 0 2.52l-.002.006C21.36 14.09 20.956 15 20.5 15.5c-.747.723-2 0-1.5-1 .314-.629.446-.953.591-1.312.086-.212.177-.436.313-.742a1.088 1.088 0 0 0 0-.893C19.11 9.774 16.856 6 12 6h-1S9.5 6 9.5 5Z" clip-rule="evenodd"/>
</svg>
