<svg xmlns="http://www.w3.org/2000/svg" width="24" height="24" fill="none" viewBox="0 0 24 24">
  <path fill="#B5FF00" fill-rule="evenodd" d="M8 7a1 1 0 0 1 1-1h6a1 1 0 1 1 0 2h-2v8h2a1 1 0 1 1 0 2H9a1 1 0 1 1 0-2h2V8H9a1 1 0 0 1-1-1Z" clip-rule="evenodd"/>
  <path fill="#B5FF00" d="M19 22a1 1 0 1 1-2 0 1 1 0 0 1 2 0Zm4-4a1 1 0 1 1-2 0 1 1 0 0 1 2 0Z"/>
  <path fill="#B5FF00" fill-rule="evenodd" d="M9.005 22.315a.9.9 0 0 1-1.158.528 11.681 11.681 0 0 1-6.677-6.42.9.9 0 1 1 1.66-.695 9.881 9.881 0 0 0 5.646 5.429.9.9 0 0 1 .529 1.158ZM22.315 9.02a.9.9 0 0 1-1.158-.527 9.88 9.88 0 0 0-5.488-5.66.9.9 0 1 1 .684-1.666 11.68 11.68 0 0 1 6.49 6.695.9.9 0 0 1-.528 1.159Z" clip-rule="evenodd"/>
  <path fill="#B5FF00" d="M3.71 1.585c.125-.513.855-.513.98 0l.342 1.412a.504.504 0 0 0 .37.371l1.413.343c.513.124.513.854 0 .978l-1.412.343a.503.503 0 0 0-.371.37l-.343 1.413a.552.552 0 0 1-.03.09c-.183.421-.832.391-.948-.09l-.343-1.412a.504.504 0 0 0-.37-.371l-1.413-.343a.551.551 0 0 1-.09-.03c-.421-.183-.391-.832.09-.948l1.412-.343a.504.504 0 0 0 .371-.37l.343-1.413Z"/>
</svg>
