<svg xmlns="http://www.w3.org/2000/svg" width="24" height="24" fill="none" viewBox="0 0 24 24">
  <path fill="#B5FF00" fill-rule="evenodd" d="M8 7a1 1 0 0 1 1-1h6a1 1 0 1 1 0 2h-2v8h2a1 1 0 1 1 0 2H9a1 1 0 1 1 0-2h2V8H9a1 1 0 0 1-1-1Zm-4.776 9.748a.826.826 0 0 1-1.094-.408 10.716 10.716 0 0 1-.167-8.497.826.826 0 1 1 1.528.627 9.065 9.065 0 0 0 .14 7.184.826.826 0 0 1-.407 1.094Zm17.258.011a.826.826 0 0 1-.409-1.094 9.064 9.064 0 0 0 .112-7.232.826.826 0 0 1 1.524-.636 10.715 10.715 0 0 1-.133 8.553.826.826 0 0 1-1.094.409Z" clip-rule="evenodd"/>
  <path fill="#B5FF00" d="M5.092 1.32c.104-.427.712-.427.816 0l.285 1.178a.42.42 0 0 0 .31.309l1.176.285c.428.104.428.712 0 .816l-1.177.285a.42.42 0 0 0-.309.31l-.285 1.176a.46.46 0 0 1-.025.075c-.153.351-.694.326-.79-.075l-.286-1.177a.42.42 0 0 0-.31-.309l-1.176-.285a.46.46 0 0 1-.075-.025c-.351-.153-.326-.694.075-.79l1.177-.286a.42.42 0 0 0 .309-.31l.285-1.176Zm13 17c.104-.427.712-.427.816 0l.285 1.178a.42.42 0 0 0 .31.309l1.176.285c.428.104.428.712 0 .816l-1.177.285a.42.42 0 0 0-.309.309l-.285 1.177a.46.46 0 0 1-.025.075c-.153.351-.694.326-.79-.075l-.286-1.177a.42.42 0 0 0-.309-.309l-1.177-.285a.46.46 0 0 1-.075-.025c-.351-.153-.326-.694.075-.79l1.177-.286a.42.42 0 0 0 .309-.31l.285-1.176ZM19 3a1 1 0 1 1-2 0 1 1 0 0 1 2 0ZM7 21a1 1 0 1 1-2 0 1 1 0 0 1 2 0Z"/>
</svg>
