<svg xmlns="http://www.w3.org/2000/svg" width="24" height="24" fill="none" viewBox="0 0 24 24">
  <path fill="#B5FF00" fill-rule="evenodd" d="M3.772 8.714c.05-.252.237-.676.618-1.205a8.737 8.737 0 0 1 1.538-1.607c1.297-1.063 3.053-1.95 5.076-2.102 4.019-.303 6.355 2.318 7.59 4.14l-1.532-.395a.887.887 0 1 0-.449 1.718l2.627.676a1.888 1.888 0 0 0 2.341-1.536l.409-2.708a.889.889 0 0 0-.752-1.01.893.893 0 0 0-1.017.747l-.213 1.413c-1.386-2.011-4.226-5.185-9.14-4.815C8.4 2.215 6.306 3.29 4.79 4.533a10.512 10.512 0 0 0-1.853 1.943c-.456.632-.799 1.293-.919 1.891a.888.888 0 0 0 .703 1.044.894.894 0 0 0 1.052-.697ZM19.61 16.49c.381-.529.568-.953.618-1.205a.894.894 0 0 1 1.052-.697.888.888 0 0 1 .703 1.044c-.12.598-.463 1.26-.919 1.892a10.511 10.511 0 0 1-1.853 1.942c-1.516 1.242-3.611 2.318-6.08 2.503-4.913.37-7.753-2.804-9.139-4.815l-.213 1.413a.893.893 0 0 1-1.017.746.889.889 0 0 1-.752-1.009l.409-2.708A1.888 1.888 0 0 1 4.76 14.06l2.627.675a.887.887 0 1 1-.449 1.718l-1.532-.393c1.235 1.82 3.571 4.442 7.59 4.14 2.024-.153 3.779-1.04 5.076-2.103a8.734 8.734 0 0 0 1.538-1.607ZM8 9a1 1 0 1 1 0-2 1 1 0 0 1 0 2Zm3.51.385c.125-.513.855-.513.98 0l.342 1.412a.504.504 0 0 0 .37.371l1.413.343c.513.124.513.854 0 .979l-1.412.342a.504.504 0 0 0-.371.37l-.343 1.413c-.124.513-.854.513-.979 0l-.342-1.412a.504.504 0 0 0-.37-.371l-1.413-.343a.555.555 0 0 1-.09-.03c-.421-.183-.391-.832.09-.948l1.412-.343a.504.504 0 0 0 .371-.37l.343-1.413ZM15 16a1 1 0 1 0 2 0 1 1 0 0 0-2 0Z" clip-rule="evenodd"/>
</svg>
