<svg xmlns="http://www.w3.org/2000/svg" width="24" height="24" fill="none" viewBox="0 0 24 24">
  <path fill="#B5FF00" d="M5.098 4.602c3.678-3.072 9.049-3.253 12.984-.532l-.161-1.493c-.067-.529.322-1.01.872-1.07.548-.062 1.046.318 1.114.846l.5 4.12a.94.94 0 0 1-.258.784l-.012.012-.064.054h-.001c-.19.158-.434.24-.683.23l-3.508.582-.04-.003c-.549-.042-.964-.505-.927-1.035.035-.506.467-.891.982-.895l1.146-.48c-3.613-2.59-8.7-2.058-11.587 1.286C2.456 10.48 2.96 15.68 6.59 18.62c3.222 2.61 7.9 2.594 11.044-.033l.005-.004c2.01-1.617 3.066-4.091 2.827-6.627-.054-.53.347-1.003.9-1.05.548-.048 1.036.343 1.09.873v.002c.305 3.16-1.005 6.249-3.51 8.273C14.566 23.71 7.921 23.21 4.1 18.945.277 14.68.72 8.257 5.098 4.601Z"/>
  <path fill="#B5FF00" d="M10.653 8.513c-.166-.684-1.14-.684-1.306 0l-.456 1.883a.672.672 0 0 1-.495.495l-1.883.456c-.684.166-.684 1.14 0 1.306l1.883.456c.245.06.436.25.495.495l.456 1.883c.166.684 1.14.684 1.306 0l.456-1.883a.672.672 0 0 1 .495-.495l1.883-.456c.684-.166.684-1.14 0-1.306l-1.883-.456a.672.672 0 0 1-.495-.495l-.456-1.883ZM13 17a1 1 0 1 0 2 0 1 1 0 0 0-2 0Zm4-4a1 1 0 1 1 0-2 1 1 0 0 1 0 2Z"/>
</svg>
