<svg xmlns="http://www.w3.org/2000/svg" width="24" height="24" fill="none" viewBox="0 0 24 24">
  <path fill="#B5FF00" fill-rule="evenodd" d="M14.163 6.249c0-.583.473-1.056 1.056-1.056h5.372a1.055 1.055 0 0 1 0 2.111h-5.372a1.055 1.055 0 0 1-1.056-1.055Zm.106 12.135a4.116 4.116 0 1 1 8.232.001 4.116 4.116 0 0 1-8.232 0Zm4.117-2.216a2.217 2.217 0 1 0-.002 4.434 2.217 2.217 0 0 0 .002-4.434Z" clip-rule="evenodd"/>
  <path fill="#B5FF00" d="M5.558 1.98c.238-.64 1.144-.64 1.381 0l.849 2.295c.074.201.233.36.435.435l2.294.848c.64.238.64 1.144 0 1.381l-2.294.849a.736.736 0 0 0-.435.435l-.849 2.294c-.237.64-1.143.64-1.38 0l-.85-2.294a.736.736 0 0 0-.434-.435L1.98 6.939c-.641-.237-.641-1.143 0-1.38l2.294-.85a.736.736 0 0 0 .435-.434l.848-2.294Z"/>
  <path fill="#B5FF00" fill-rule="evenodd" d="M2.5 19a1 1 0 0 1 1-1h6a1 1 0 1 1 0 2h-6a1 1 0 0 1-1-1Z" clip-rule="evenodd"/>
</svg>
