<svg xmlns="http://www.w3.org/2000/svg" width="24" height="24" fill="none" viewBox="0 0 24 24">
  <path fill="#B5FF00" fill-rule="evenodd" d="M6 5a1 1 0 0 1 1-1h9a1 1 0 1 1 0 2H7a1 1 0 0 1-1-1ZM5 6a1 1 0 0 1 1 1v9a1 1 0 1 1-2 0V7a1 1 0 0 1 1-1Zm1.293 10.293 10-10a1 1 0 1 1 1.414 1.414l-10 10a1 1 0 0 1-1.414-1.414Z" clip-rule="evenodd"/>
  <path fill="#B5FF00" fill-rule="evenodd" d="M18 4a1 1 0 1 0 0 2 1 1 0 0 0 0-2Zm3 1a3 3 0 1 0-6 0 3 3 0 0 0 6 0ZM5 4a1 1 0 1 0 0 2 1 1 0 0 0 0-2Zm3 1a3 3 0 1 0-6 0 3 3 0 0 0 6 0ZM4 18a1 1 0 1 1 2 0 1 1 0 0 1-2 0Zm1-3a3 3 0 1 1 0 6 3 3 0 0 1 0-6Z" clip-rule="evenodd"/>
  <path fill="#B5FF00" d="M22 11a1 1 0 1 1-2 0 1 1 0 0 1 2 0Zm-4.653 3.513c.166-.684 1.14-.684 1.306 0l.456 1.883c.06.245.25.435.495.495l1.883.456c.684.166.684 1.14 0 1.306l-1.883.456a.672.672 0 0 0-.495.495l-.456 1.883c-.166.684-1.14.684-1.306 0l-.456-1.883a.672.672 0 0 0-.495-.495l-1.883-.456c-.684-.166-.684-1.14 0-1.306l1.883-.456a.672.672 0 0 0 .495-.495l.456-1.883Z"/>
  <path fill="#B5FF00" fill-rule="evenodd" d="m18 15.242-.326 1.344c-.13.538-.55.958-1.088 1.088L15.242 18l1.344.326c.538.13.958.55 1.088 1.088L18 20.759l.326-1.345c.13-.538.55-.958 1.088-1.088L20.759 18l-1.345-.326a1.478 1.478 0 0 1-1.088-1.088L18 15.242Zm.653-.729c-.166-.684-1.14-.684-1.306 0l-.456 1.883a.672.672 0 0 1-.495.495l-1.883.456c-.684.166-.684 1.14 0 1.306l1.883.456c.245.06.435.25.495.495l.456 1.883c.166.684 1.14.684 1.306 0l.456-1.883a.672.672 0 0 1 .495-.495l1.883-.456c.684-.166.684-1.14 0-1.306l-1.883-.456a.672.672 0 0 1-.495-.495l-.456-1.883Z" clip-rule="evenodd"/>
  <path fill="#B5FF00" d="M12 21a1 1 0 1 1-2 0 1 1 0 0 1 2 0Z"/>
</svg>
