<svg xmlns="http://www.w3.org/2000/svg" width="24" height="24" fill="none" viewBox="0 0 24 24">
  <path fill="#B5FF00" fill-rule="evenodd" d="m17.346 19.06 3.44-5.96a2.2 2.2 0 0 0 0-2.2l-3.44-5.96a2.2 2.2 0 0 0-1.905-1.1H8.559a2.2 2.2 0 0 0-1.905 1.1l-3.44 5.96a2.2 2.2 0 0 0 0 2.2l3.44 5.96a2.2 2.2 0 0 0 1.905 1.1h6.882a2.2 2.2 0 0 0 1.905-1.1Zm5-5.06a4 4 0 0 0 0-4l-3.441-5.96a4 4 0 0 0-3.464-2H8.559a4 4 0 0 0-3.464 2L1.655 10a4 4 0 0 0 0 4l3.44 5.96a4 4 0 0 0 3.464 2h6.882a4 4 0 0 0 3.464-2l3.44-5.96Z" clip-rule="evenodd"/>
  <path fill="#B5FF00" fill-rule="evenodd" d="M8.6 12a3.4 3.4 0 1 1 6.8 0 3.4 3.4 0 0 1-6.8 0Zm3.4-1.6a1.6 1.6 0 1 0 0 3.2 1.6 1.6 0 0 0 0-3.2Z" clip-rule="evenodd"/>
</svg>
