<svg xmlns="http://www.w3.org/2000/svg" width="24" height="24" fill="none" viewBox="0 0 24 24">
  <path fill="#B5FF00" fill-rule="evenodd" d="M3.8 1.68a.72.72 0 0 1 .72.72v9.8a.72.72 0 0 1-1.44 0V2.4a.72.72 0 0 1 .72-.72Zm16.4 0a.72.72 0 0 1 .72.72v6.4a.72.72 0 0 1-1.44 0V2.4a.72.72 0 0 1 .72-.72Zm-8.2 0a.72.72 0 0 1 .72.72V5a.72.72 0 0 1-1.44 0V2.4a.72.72 0 0 1 .72-.72Zm8.2 15a.72.72 0 0 1 .72.72v4.2a.72.72 0 0 1-1.44 0v-4.2a.72.72 0 0 1 .72-.72Zm-8.2-4.8a.72.72 0 0 1 .72.72v9a.72.72 0 0 1-1.44 0v-9a.72.72 0 0 1 .72-.72Zm-8.2 7.2a.72.72 0 0 1 .72.72v1.8a.72.72 0 0 1-1.44 0v-1.8a.72.72 0 0 1 .72-.72ZM9.1 9a.9.9 0 0 1 .9-.9h4a.9.9 0 1 1 0 1.8h-4a.9.9 0 0 1-.9-.9Zm-8 7a.9.9 0 0 1 .9-.9h4a.9.9 0 1 1 0 1.8H2a.9.9 0 0 1-.9-.9Zm16-3a.9.9 0 0 1 .9-.9h4a.9.9 0 1 1 0 1.8h-4a.9.9 0 0 1-.9-.9Z" clip-rule="evenodd"/>
  <path fill="#B5FF00" fill-rule="evenodd" d="M3.8 1.58a.82.82 0 0 1 .82.82v9.8a.82.82 0 1 1-1.64 0V2.4a.82.82 0 0 1 .82-.82Zm16.4 0a.82.82 0 0 1 .82.82v6.4a.82.82 0 0 1-1.64 0V2.4a.82.82 0 0 1 .82-.82Zm-8.2 0a.82.82 0 0 1 .82.82V5a.82.82 0 0 1-1.64 0V2.4a.82.82 0 0 1 .82-.82Zm8.2 15a.82.82 0 0 1 .82.82v4.2a.82.82 0 0 1-1.64 0v-4.2a.82.82 0 0 1 .82-.82Zm-8.2-4.8a.82.82 0 0 1 .82.82v9a.82.82 0 0 1-1.64 0v-9a.82.82 0 0 1 .82-.82Zm-8.2 7.2a.82.82 0 0 1 .82.82v1.8a.82.82 0 1 1-1.64 0v-1.8a.82.82 0 0 1 .82-.82ZM9 9a1 1 0 0 1 1-1h4a1 1 0 1 1 0 2h-4a1 1 0 0 1-1-1Zm-8 7a1 1 0 0 1 1-1h4a1 1 0 1 1 0 2H2a1 1 0 0 1-1-1Zm16-3a1 1 0 0 1 1-1h4a1 1 0 1 1 0 2h-4a1 1 0 0 1-1-1ZM3.8 1.68a.72.72 0 0 1 .72.72v9.8a.72.72 0 0 1-1.44 0V2.4a.72.72 0 0 1 .72-.72Zm16.4 0a.72.72 0 0 1 .72.72v6.4a.72.72 0 0 1-1.44 0V2.4a.72.72 0 0 1 .72-.72Zm-7.48.72a.72.72 0 0 0-1.44 0V5a.72.72 0 1 0 1.44 0V2.4Zm7.48 14.28a.72.72 0 0 1 .72.72v4.2a.72.72 0 0 1-1.44 0v-4.2a.72.72 0 0 1 .72-.72Zm-7.48-4.08a.72.72 0 1 0-1.44 0v9a.72.72 0 1 0 1.44 0v-9ZM3.8 19.08a.72.72 0 0 1 .72.72v1.8a.72.72 0 0 1-1.44 0v-1.8a.72.72 0 0 1 .72-.72ZM10 8.1a.9.9 0 0 0 0 1.8h4a.9.9 0 1 0 0-1.8h-4ZM1.1 16a.9.9 0 0 1 .9-.9h4a.9.9 0 1 1 0 1.8H2a.9.9 0 0 1-.9-.9ZM18 12.1a.9.9 0 1 0 0 1.8h4a.9.9 0 1 0 0-1.8h-4Z" clip-rule="evenodd"/>
</svg>
