<svg xmlns="http://www.w3.org/2000/svg" width="24" height="24" fill="none" viewBox="0 0 24 24">
  <path fill="#B5FF00" fill-rule="evenodd" d="M20 3a1 1 0 1 0 0-2 1 1 0 0 0 0 2ZM8.385 4.49c-.513-.125-.513-.855 0-.98l1.412-.342a.504.504 0 0 0 .371-.37l.343-1.413c.124-.513.854-.513.979 0l.342 1.412a.504.504 0 0 0 .37.371l1.413.343c.513.124.513.854 0 .978l-1.412.343a.504.504 0 0 0-.371.37l-.343 1.413c-.124.513-.854.513-.979 0l-.342-1.412a.504.504 0 0 0-.37-.371l-1.413-.343ZM4.1 21a.9.9 0 0 1 .9-.9h5.128a.975.975 0 0 1-.004-.084c0-1.116-.113-1.794-.354-2.321-.165-.362-.413-.702-.818-1.085-1.33.96-3.244.949-4.552-.145-.473-.37-.82-.957-1.069-1.469a14.225 14.225 0 0 1-.695-1.768 25.92 25.92 0 0 1-.602-2.166l-.008-.037-.002-.01-.001-.005a.964.964 0 0 1 .203-.827c.193-.232.484-.365.79-.364h.054a18.643 18.643 0 0 1 .646.017c.42.016.996.047 1.61.106.612.059 1.285.148 1.892.285.56.127 1.21.325 1.678.676a3.534 3.534 0 0 1 1.276 4.122c.386.343.716.696.99 1.081l.028-.067c.482-1.132 1.118-2.283 1.85-3.136-.942-1.69-.472-3.889 1.18-5.043.538-.404 1.298-.589 1.95-.692a16.13 16.13 0 0 1 2.205-.165 30.135 30.135 0 0 1 2.639.081l.045.004h.012l.005.001-.087.98.976.256-.001.005-.003.01-.01.04a21.932 21.932 0 0 1-.196.646c-.133.42-.324.992-.56 1.6a15.643 15.643 0 0 1-.838 1.847c-.3.547-.692 1.138-1.182 1.52-1.35 1.129-3.287 1.213-4.731.351-.49.621-.977 1.49-1.385 2.448-.52 1.22-.852 2.452-.915 3.294v.014H17a.9.9 0 0 1 0 1.8H5a.9.9 0 0 1-.9-.9ZM21.965 8.325l-.976-.256.087-.98c.298.025.57.178.741.416a.963.963 0 0 1 .148.82ZM23 21a1 1 0 1 1-2 0 1 1 0 0 1 2 0ZM2 7a1 1 0 1 0 0-2 1 1 0 0 0 0 2Zm14.494 2.11c-.617.098-.938.23-1.043.311a.976.976 0 0 1-.042.03c-.909.628-1.102 1.926-.413 2.778.688.852 2.03.975 2.87.263l.041-.033c.153-.116.388-.409.666-.915.263-.478.512-1.048.73-1.611.129-.334.245-.66.343-.95a26.697 26.697 0 0 0-1.24-.012c-.666.01-1.342.05-1.912.14ZM4.32 11.838c.071.248.153.518.243.794.176.537.378 1.077.595 1.521.235.482.422.714.51.78.014.01.027.022.04.033.682.577 1.775.477 2.334-.214.555-.687.39-1.755-.336-2.257a1.018 1.018 0 0 1-.042-.03c-.096-.074-.377-.2-.904-.32a13.539 13.539 0 0 0-1.632-.243 24.25 24.25 0 0 0-.808-.064Z" clip-rule="evenodd"/>
</svg>
