<svg xmlns="http://www.w3.org/2000/svg" width="24" height="24" fill="none" viewBox="0 0 24 24">
  <path fill="#B5FF00" fill-rule="evenodd" d="M6.906 4.78c-.756-1.907.84-3.68 2.656-3.68h4.876c.937 0 1.77.443 2.27 1.133.51.702.66 1.653.228 2.558-.455.949-1.07 1.95-1.86 2.725C14.282 8.295 13.251 8.9 12 8.9c-2.92 0-4.359-2.264-5.094-4.12ZM9.562 2.9c-.786 0-1.185.706-.983 1.218C9.252 5.815 10.257 7.1 12 7.1c.63 0 1.233-.298 1.816-.87.586-.575 1.093-1.373 1.496-2.216a.677.677 0 0 0-.06-.725.995.995 0 0 0-.814-.389H9.562Z" clip-rule="evenodd"/>
  <path fill="#B5FF00" fill-rule="evenodd" d="M4.784 9.418c1.445-1.524 3.16-2.603 4.29-3.21l.853 1.584c-1.038.56-2.573 1.53-3.836 2.864C4.827 11.99 3.9 13.613 3.9 15.5c0 1.234.279 2.16.711 2.866.433.707 1.053 1.245 1.814 1.653C7.976 20.85 10.045 21.1 12 21.1c1.912 0 3.989-.362 5.553-1.256 1.515-.866 2.547-2.216 2.547-4.344 0-3.96-3.232-6.396-5.547-7.719l.893-1.562C17.8 7.563 21.9 10.46 21.9 15.5c0 2.872-1.468 4.772-3.453 5.906C16.51 22.512 14.087 22.9 12 22.9c-2.044 0-4.476-.25-6.425-1.294-.99-.53-1.87-1.273-2.499-2.3-.63-1.029-.976-2.29-.976-3.806 0-2.513 1.24-4.557 2.684-6.082Z" clip-rule="evenodd"/>
  <path fill="#B5FF00" d="M11.429 11.95c.145-.6.997-.6 1.142 0l.4 1.647c.051.214.218.38.432.432l1.648.4c.599.145.599.997 0 1.142l-1.648.4a.588.588 0 0 0-.432.432l-.4 1.648c-.145.599-.997.599-1.142 0l-.4-1.648a.588.588 0 0 0-.432-.432l-1.648-.4c-.599-.145-.599-.997 0-1.142l1.648-.4a.588.588 0 0 0 .432-.432l.4-1.648Z"/>
  <path fill="#B5FF00" fill-rule="evenodd" d="m12 12.586-.285 1.177c-.114.47-.482.838-.952.952L9.586 15l1.177.285c.47.114.838.482.952.952L12 17.414l.285-1.177c.114-.47.482-.838.952-.952L14.414 15l-1.177-.285a1.293 1.293 0 0 1-.952-.952L12 12.586Zm.571-.637c-.145-.599-.997-.599-1.142 0l-.4 1.648a.588.588 0 0 1-.432.432l-1.648.4c-.599.145-.599.997 0 1.142l1.648.4c.214.051.38.218.432.432l.4 1.648c.145.599.997.599 1.142 0l.4-1.648a.588.588 0 0 1 .432-.432l1.648-.4c.599-.145.599-.997 0-1.142l-1.648-.4a.588.588 0 0 1-.432-.432l-.4-1.648Z" clip-rule="evenodd"/>
  <path fill="#B5FF00" d="M23 4a1 1 0 1 1-2 0 1 1 0 0 1 2 0ZM3 6a1 1 0 1 1-2 0 1 1 0 0 1 2 0Z"/>
</svg>
