<svg xmlns="http://www.w3.org/2000/svg" width="24" height="24" fill="none" viewBox="0 0 24 24">
  <path fill="#B5FF00" fill-rule="evenodd" d="M2.1 12a1.88 1.88 0 0 1 1.926-1.886c4.434.124 6.512 1.051 7.88 1.79.62.333.994.98.994 1.671V22a.9.9 0 0 1-1.33.79l-.21-.114c-.582-.32-1.24-.683-2.25-1.004-1.133-.36-2.737-.672-5.135-.74A1.922 1.922 0 0 1 2.1 19.02V12Zm1.827-.067A.092.092 0 0 0 3.9 12v7.02c0 .047.043.11.126.113 2.532.071 4.307.404 5.63.824.561.178 1.037.371 1.444.56v-6.942a.099.099 0 0 0-.048-.087c-1.132-.61-2.935-1.459-7.077-1.575a.062.062 0 0 0-.048.02Z" clip-rule="evenodd"/>
  <path fill="#B5FF00" fill-rule="evenodd" d="M20.073 11.933a.062.062 0 0 0-.048-.02c-4.141.116-5.945.964-7.077 1.575a.099.099 0 0 0-.048.087v6.942c.407-.189.883-.382 1.445-.56 1.322-.42 3.097-.753 5.63-.824.082-.002.125-.066.125-.114V12a.092.092 0 0 0-.027-.067Zm-.099-1.819A1.88 1.88 0 0 1 21.9 12v7.02a1.922 1.922 0 0 1-1.875 1.913c-2.398.067-4.002.38-5.136.74-1.009.32-1.667.682-2.25 1.003l-.209.115A.9.9 0 0 1 11.1 22v-8.425c0-.69.374-1.338.994-1.672 1.368-.738 3.446-1.665 7.88-1.789Z" clip-rule="evenodd"/>
  <path fill="#B5FF00" stroke="#B5FF00" d="M15.064 6.933V3.067l.502.003 4.104.024h.002l-4.608 3.839Zm0 0 .502-.003 4.104-.024h.002m-4.608.027 4.608-.027m0 0-.002-.5.002.5ZM2.402 4.792l.006-.005.008-.006L5.26 2.5h14.41c.44 0 .88.185 1.163.465.282.28.467.713.467 1.144v1.782c0 .89-.718 1.609-1.63 1.609H5.26L2.437 5.236l-.052-.052c-.125-.124-.104-.302.017-.392ZM5.34 6.796l.136.11h.175l6.834.024h1.969V3.07h-1.969l-6.834.024h-.175l-.136.11L3.589 4.61 3.103 5l.486.39 1.75 1.406Z"/>
</svg>
