<svg xmlns="http://www.w3.org/2000/svg" width="24" height="24" fill="none" viewBox="0 0 24 24">
  <path fill="#B5FF00" fill-rule="evenodd" d="M3 3a1 1 0 1 0 0-2 1 1 0 0 0 0 2Zm18 0a1 1 0 1 0 0-2 1 1 0 0 0 0 2Zm.326 16.257.229.941c.03.122.125.218.247.247l.941.229c.343.083.343.57 0 .652l-.941.229a.336.336 0 0 0-.247.247l-.229.941c-.083.343-.57.343-.652 0l-.229-.941a.336.336 0 0 0-.247-.247l-.941-.229c-.343-.083-.343-.57 0-.652l.941-.229a.336.336 0 0 0 .247-.247l.229-.941c.083-.343.57-.343.652 0Zm-18.652 0c.083-.343.57-.343.652 0l.229.941c.03.122.125.218.247.247l.941.229c.343.083.343.57 0 .652l-.941.229a.336.336 0 0 0-.247.247l-.229.941c-.083.343-.57.343-.652 0l-.229-.941a.336.336 0 0 0-.247-.247l-.941-.229c-.343-.083-.343-.57 0-.652l.941-.229a.336.336 0 0 0 .247-.247l.229-.941ZM4.03 5.117C2.95 5.08 2.1 5.959 2.1 7v8.659c0 1.058.854 1.882 1.87 1.916 2.385.079 3.975.446 5.097.867 1 .375 1.654.8 2.236 1.179a46.303 46.303 0 0 0 .231.149.9.9 0 0 0 .956-.015l.206-.133v-.001c.583-.379 1.237-.804 2.237-1.18 1.122-.42 2.712-.787 5.096-.866 1.017-.034 1.871-.858 1.871-1.916V7c0-1.041-.85-1.92-1.93-1.883-4.51.149-6.601 1.276-7.97 2.152-1.369-.876-3.46-2.003-7.97-2.152Zm8.87 12.276c.398-.214.86-.434 1.4-.637 1.335-.5 3.124-.896 5.67-.98.087-.003.13-.07.13-.117V7a.09.09 0 0 0-.026-.066.056.056 0 0 0-.045-.018c-4.18.138-5.957 1.162-7.085 1.886a.1.1 0 0 0-.044.085v8.506Zm-1.8 0V8.887a.1.1 0 0 0-.043-.085C9.928 8.078 8.15 7.054 3.97 6.916a.056.056 0 0 0-.045.018A.09.09 0 0 0 3.9 7v8.659c0 .047.043.114.13.117 2.546.084 4.334.48 5.67.98a11.25 11.25 0 0 1 1.4.637Z" clip-rule="evenodd"/>
</svg>
