<svg xmlns="http://www.w3.org/2000/svg" width="24" height="24" fill="none" viewBox="0 0 24 24">
  <path fill="#B5FF00" fill-rule="evenodd" d="M3 5a1 1 0 0 1 1-1h7a1 1 0 1 1 0 2H8.5v12H11a1 1 0 1 1 0 2H4a1 1 0 1 1 0-2h2.5V6H4a1 1 0 0 1-1-1Z" clip-rule="evenodd"/>
  <path fill="#B5FF00" d="M15.347 8.513c.166-.684 1.14-.684 1.306 0l.456 1.883c.06.245.25.435.495.495l1.883.456c.684.166.684 1.14 0 1.306l-1.883.456a.672.672 0 0 0-.495.495l-.456 1.883c-.166.684-1.14.684-1.306 0l-.456-1.883a.672.672 0 0 0-.495-.495l-1.883-.456c-.684-.166-.684-1.14 0-1.306l1.883-.456a.672.672 0 0 0 .495-.495l.456-1.883Z"/>
  <path fill="#B5FF00" fill-rule="evenodd" d="m16 9.241-.326 1.345c-.13.538-.55.958-1.088 1.088L13.241 12l1.345.326c.538.13.958.55 1.088 1.088L16 14.759l.326-1.345c.13-.538.55-.958 1.088-1.088L18.759 12l-1.345-.326a1.477 1.477 0 0 1-1.088-1.088L16 9.241Zm.653-.728c-.166-.684-1.14-.684-1.306 0l-.456 1.883a.672.672 0 0 1-.495.495l-1.883.456c-.684.166-.684 1.14 0 1.306l1.883.456c.245.06.435.25.495.495l.456 1.883c.166.684 1.14.684 1.306 0l.456-1.883a.672.672 0 0 1 .495-.495l1.883-.456c.684-.166.684-1.14 0-1.306l-1.883-.456a.672.672 0 0 1-.495-.495l-.456-1.883Z" clip-rule="evenodd"/>
  <path fill="#B5FF00" d="M21 5a1 1 0 1 1-2 0 1 1 0 0 1 2 0Zm0 14a1 1 0 1 1-2 0 1 1 0 0 1 2 0Z"/>
</svg>
