<svg xmlns="http://www.w3.org/2000/svg" width="24" height="24" fill="none" viewBox="0 0 24 24">
  <path fill="#B5FF00" fill-rule="evenodd" d="M12.474 3.9C7.694 3.9 3.9 7.57 3.9 12s3.795 8.1 8.574 8.1a.9.9 0 0 1 0 1.8C6.789 21.9 2.1 17.51 2.1 12c0-5.51 4.689-9.9 10.374-9.9 3.281 0 6.22 1.456 8.126 3.745V4a.9.9 0 1 1 1.8 0v3.383a1.9 1.9 0 0 1-2.11 1.888l-3.39-.377a.9.9 0 1 1 .2-1.788l2.412.268C17.968 5.282 15.4 3.9 12.474 3.9Zm9.918 7.6a.9.9 0 1 0-1.8 0c0 .786-.101 1.547-.29 2.27a.9.9 0 1 0 1.74.457c.229-.872.35-1.786.35-2.727Zm-1.787 5.93a.9.9 0 0 0-1.5-.997 8.975 8.975 0 0 1-.99 1.238.9.9 0 1 0 1.299 1.245 10.72 10.72 0 0 0 1.19-1.486Zm-3.732 3.447A.9.9 0 0 0 16 19.304c-.244.135-.494.26-.75.372a.9.9 0 0 0 .723 1.648c.308-.135.609-.284.901-.447Z" clip-rule="evenodd"/>
</svg>
