<svg xmlns="http://www.w3.org/2000/svg" width="24" height="24" fill="none" viewBox="0 0 24 24">
  <path fill="#B5FF00" fill-rule="evenodd" d="M2.91 16.121a.91.91 0 0 1 .908.91v3.15H6.97a.91.91 0 1 1 0 1.819H2.91a.91.91 0 0 1-.91-.91v-4.06a.91.91 0 0 1 .91-.909ZM16.121 2.91a.91.91 0 0 1 .91-.91h4.06a.91.91 0 0 1 .909.91v4.06a.91.91 0 1 1-1.818 0V3.818H17.03a.91.91 0 0 1-.909-.909Z" clip-rule="evenodd"/>
  <path fill="#B5FF00" fill-rule="evenodd" d="M21.734 2.266a.91.91 0 0 1 0 1.286l-6.071 6.07a.91.91 0 0 1-1.286-1.285l6.071-6.07a.909.909 0 0 1 1.286 0ZM10.128 13.872a.91.91 0 0 1 0 1.286l-6.576 6.576a.909.909 0 1 1-1.286-1.286l6.576-6.576a.91.91 0 0 1 1.286 0ZM7.879 2.91a.91.91 0 0 1-.91.908H3.82V6.97a.91.91 0 0 1-1.82 0V2.91A.91.91 0 0 1 2.91 2h4.06a.91.91 0 0 1 .909.91ZM21.09 16.121a.91.91 0 0 1 .91.91v4.06a.91.91 0 0 1-.91.909h-4.06a.91.91 0 1 1 0-1.818h3.152V17.03a.91.91 0 0 1 .909-.909Z" clip-rule="evenodd"/>
  <path fill="#B5FF00" fill-rule="evenodd" d="M21.734 21.734a.91.91 0 0 1-1.286 0l-6.07-6.071a.909.909 0 1 1 1.285-1.286l6.07 6.071a.91.91 0 0 1 0 1.286ZM10.128 10.128a.91.91 0 0 1-1.286 0L2.266 3.552a.91.91 0 0 1 1.286-1.286l6.576 6.576a.91.91 0 0 1 0 1.286Z" clip-rule="evenodd"/>
</svg>
