<svg xmlns="http://www.w3.org/2000/svg" width="24" height="24" fill="none" viewBox="0 0 24 24">
  <path fill="#B5FF00" fill-rule="evenodd" d="M4.096 11.553C4.89 9.773 7.144 6 12 6s7.111 3.773 7.904 5.553c.128.287.128.606 0 .893C19.11 14.228 16.856 18 12 18s-7.11-3.773-7.904-5.553a1.088 1.088 0 0 1 0-.894ZM12 4c-6.11 0-8.862 4.788-9.73 6.74a3.088 3.088 0 0 0 0 2.52C3.139 15.212 5.89 20 12 20s8.862-4.788 9.731-6.74a3.087 3.087 0 0 0 0-2.52C20.862 8.788 18.11 4 12.001 4Zm-2 8a2 2 0 1 1 4 0 2 2 0 0 1-4 0Zm2-4a4 4 0 1 0 0 8 4 4 0 0 0 0-8Z" clip-rule="evenodd"/>
</svg>
