<svg xmlns="http://www.w3.org/2000/svg" width="24" height="24" fill="none" viewBox="0 0 24 24">
  <path fill="#B5FF00" fill-rule="evenodd" d="M12 3.7c-1.944 0-3.497 1.63-3.5 3.599v4.108c0 1.96 1.558 3.576 3.5 3.576h.343c1.942 0 3.5-1.616 3.5-3.576V7.305c0-1.972-1.554-3.605-3.5-3.605H12Zm-1.643 7.94V7.072c.11-.852.824-1.493 1.643-1.493h.343c.819 0 1.533.64 1.643 1.493v4.568c-.111.83-.82 1.464-1.643 1.464H12c-.823 0-1.532-.633-1.643-1.464Z" clip-rule="evenodd"/>
  <path fill="#B5FF00" d="M6.629 12.292a.934.934 0 0 0-.929.94c0 1.533.86 2.881 2.003 3.855.924.787 2.073.971 3.214 1.155l.354.058v1.521H8.457a.934.934 0 0 0-.928.94c0 .506.404.939.928.939h7.486a.934.934 0 0 0 .928-.94.934.934 0 0 0-.928-.939h-2.814V18.3l.354-.058c1.141-.184 2.29-.368 3.214-1.155 1.143-.974 2.003-2.322 2.003-3.856a.934.934 0 0 0-.929-.94.934.934 0 0 0-.928.94c0 .96-.591 1.892-1.52 2.606-.87.67-1.965.666-2.937.663h-.372c-.972.003-2.067.006-2.937-.663-.93-.714-1.52-1.645-1.52-2.606a.934.934 0 0 0-.928-.94ZM19.51 2.385c.125-.513.855-.513.98 0l.342 1.412a.504.504 0 0 0 .37.371l1.413.343c.513.124.513.854 0 .978l-1.412.343a.504.504 0 0 0-.371.37l-.343 1.413c-.124.513-.854.513-.979 0l-.342-1.412a.504.504 0 0 0-.37-.371l-1.413-.343a.553.553 0 0 1-.09-.03c-.421-.183-.391-.832.09-.948l1.412-.343a.504.504 0 0 0 .371-.37l.343-1.413ZM3.092 17.32c.104-.427.712-.427.816 0l.285 1.178a.42.42 0 0 0 .31.309l1.176.285c.428.104.428.712 0 .816l-1.177.285a.416.416 0 0 0-.309.31l-.285 1.176a.46.46 0 0 1-.025.075c-.153.351-.694.326-.79-.075l-.286-1.177a.419.419 0 0 0-.31-.309l-1.176-.285a.46.46 0 0 1-.075-.025c-.351-.153-.326-.694.075-.79l1.177-.286a.42.42 0 0 0 .309-.31l.285-1.176ZM7 3a1 1 0 1 1-2 0 1 1 0 0 1 2 0Zm15 18a1 1 0 1 1-2 0 1 1 0 0 1 2 0Zm0-4a1 1 0 1 1-2 0 1 1 0 0 1 2 0ZM4 6a1 1 0 1 1-2 0 1 1 0 0 1 2 0Z"/>
</svg>
