<svg xmlns="http://www.w3.org/2000/svg" width="24" height="24" fill="none" viewBox="0 0 24 24">
  <path fill="#B5FF00" fill-rule="evenodd" d="M11.636 12.364a.9.9 0 0 0-1.272 0l-8 8a.9.9 0 1 0 1.272 1.272l8-8a.9.9 0 0 0 0-1.272Z" clip-rule="evenodd"/>
  <path fill="#B5FF00" d="M4.674 1.257c.083-.343.57-.343.652 0l.229.941c.03.122.125.218.247.247l.941.229c.343.083.343.57 0 .652l-.941.229a.336.336 0 0 0-.247.247l-.229.941c-.083.343-.57.343-.652 0l-.229-.941a.336.336 0 0 0-.247-.247l-.941-.229c-.343-.083-.343-.57 0-.652l.941-.229a.336.336 0 0 0 .247-.247l.229-.941ZM21 17a1 1 0 1 0 2 0 1 1 0 0 0-2 0ZM1 9a1 1 0 1 0 2 0 1 1 0 0 0-2 0Z"/>
  <path fill="#B5FF00" fill-rule="evenodd" d="m18.137 5.093-2.173.734a3 3 0 0 1-2.52-.279l-1.96-1.192.027 2.294a3 3 0 0 1-1.044 2.31l-1.74 1.496 2.19.684a3 3 0 0 1 1.874 1.706l.886 2.117 1.326-1.872a3 3 0 0 1 2.203-1.255l2.287-.187-1.37-1.84a3 3 0 0 1-.514-2.483l.528-2.233Zm2.001-.639a1.2 1.2 0 0 0-1.552-1.413l-3.199 1.081a1.2 1.2 0 0 1-1.008-.112l-2.884-1.755a1.2 1.2 0 0 0-1.824 1.04l.04 3.376a1.2 1.2 0 0 1-.418.924l-2.56 2.202a1.2 1.2 0 0 0 .424 2.055l3.224 1.006a1.2 1.2 0 0 1 .75.683l1.302 3.115a1.2 1.2 0 0 0 2.086.231l1.953-2.755a1.2 1.2 0 0 1 .88-.502l3.366-.276a1.2 1.2 0 0 0 .865-1.913l-2.017-2.708a1.2 1.2 0 0 1-.205-.993l.777-3.286Z" clip-rule="evenodd"/>
  <path fill="#B5FF00" d="M4.674 1.257c.083-.343.57-.343.652 0l.229.941c.03.122.125.218.247.247l.941.229c.343.083.343.57 0 .652l-.941.229a.336.336 0 0 0-.247.247l-.229.941c-.083.343-.57.343-.652 0l-.229-.941a.336.336 0 0 0-.247-.247l-.941-.229c-.343-.083-.343-.57 0-.652l.941-.229a.336.336 0 0 0 .247-.247l.229-.941Zm12 18c.083-.343.57-.343.652 0l.229.941c.03.122.125.218.247.247l.941.229c.343.083.343.57 0 .652l-.941.229a.336.336 0 0 0-.247.247l-.229.941c-.083.343-.57.343-.652 0l-.229-.941a.336.336 0 0 0-.247-.247l-.941-.229c-.342-.083-.342-.57 0-.652l.941-.229a.336.336 0 0 0 .247-.247l.229-.941Z"/>
</svg>
