<svg xmlns="http://www.w3.org/2000/svg" width="24" height="24" fill="none" viewBox="0 0 24 24">
  <path fill="#B5FF00" d="M23 2a1 1 0 1 1-2 0 1 1 0 0 1 2 0ZM12.604 12.11l1.883-.457c.684-.166.684-1.14 0-1.306l-1.883-.456a.672.672 0 0 1-.495-.495l-.456-1.883c-.156-.641-1.021-.681-1.265-.12a.737.737 0 0 0-.04.12L9.89 9.396a.672.672 0 0 1-.495.495l-1.883.456c-.641.156-.681 1.021-.12 1.265a.65.65 0 0 0 .12.04l1.883.457a.672.672 0 0 1 .495.495l.456 1.883c.166.684 1.14.684 1.306 0l.456-1.883a.672.672 0 0 1 .495-.495Z"/>
  <path fill="#B5FF00" fill-rule="evenodd" d="M11 2a9 9 0 1 0 5.618 16.032l4.675 4.675a1 1 0 0 0 1.414-1.414l-4.675-4.675A9 9 0 0 0 11 2Zm-7.2 9a7.2 7.2 0 1 0 14.4 0 7.2 7.2 0 0 0-14.4 0Z" clip-rule="evenodd"/>
  <path fill="#B5FF00" d="M2 23a1 1 0 1 0 0-2 1 1 0 0 0 0 2Z"/>
</svg>
